<svg width="1066" height="288" xmlns="http://www.w3.org/2000/svg" xmlns:xlink="http://www.w3.org/1999/xlink" overflow="hidden"><g transform="translate(-63 -169)"><path d="M64 181.268C64 175.045 69.045 170 75.2684 170L1095.73 170C1101.95 170 1107 175.045 1107 181.268L1107 444.732C1107 450.955 1101.95 456 1095.73 456L75.2684 456C69.045 456 64 450.955 64 444.732Z" fill="#4B6C9F" fill-rule="evenodd"/><path d="M240.242 198.496C345.959 222.917 280.927 285.859 254.328 305.942 227.728 326.026 177.882 357.553 80.6451 318.997 197.073 303.866 191.038 304.671 221.971 293.681 252.904 282.692 303.736 238.935 240.242 198.496Z" fill="#81A8E7" fill-rule="evenodd"/><path d="M422.549 395.186C315.42 403.672 186.424 409.564 185.01 362.658 183.596 315.751 339.456 258 448 258 331.795 290.778 232.378 351.215 262.07 368.315 291.761 385.415 371.865 393.202 422.549 395.186Z" fill="#94C639" fill-rule="evenodd"/><path d="M423.25 275.529C428.656 275.529 432.889 276.371 435.949 278.054 439.009 279.737 441.253 282.465 442.681 286.239 443.599 288.687 444.594 291.492 445.665 294.654 446.736 297.816 447.807 301.08 448.878 304.446 449.949 307.812 450.994 311.153 452.014 314.467 453.034 317.783 453.952 320.766 454.768 323.418L455.533 323.418C457.981 314.85 460.429 306.562 462.877 298.556 465.325 290.549 467.569 283.842 469.609 278.436 471.139 277.62 473.103 276.932 475.5 276.371 477.897 275.81 480.574 275.529 483.532 275.529 488.53 275.529 492.61 276.268 495.772 277.747 498.934 279.227 500.77 281.343 501.28 284.097 501.688 286.137 502.122 289.273 502.581 293.507 503.04 297.74 503.524 302.508 504.034 307.812 504.544 313.116 505.054 318.726 505.564 324.642 506.074 330.558 506.559 336.245 507.018 341.702 507.477 347.159 507.859 352.156 508.165 356.695 508.471 361.234 508.675 364.728 508.777 367.176 507.043 368.196 505.233 368.936 503.346 369.395 501.459 369.854 499.036 370.083 496.078 370.083 492.202 370.083 488.938 369.42 486.286 368.094 483.634 366.768 482.206 364.167 482.002 360.291 481.39 349.173 481.008 339.177 480.855 330.303 480.702 321.429 480.472 313.983 480.166 307.965L479.401 307.965C478.381 311.943 476.902 316.941 474.964 322.959 473.026 328.977 470.68 336.678 467.926 346.062 466.6 347.184 464.892 348.077 462.801 348.74 460.71 349.402 458.287 349.734 455.533 349.734 451.861 349.734 448.827 349.275 446.43 348.357 444.033 347.439 442.477 345.858 441.763 343.614 438.907 334.638 436.561 327.371 434.725 321.812 432.889 316.253 431.461 311.382 430.441 307.2L429.676 307.2C429.37 313.218 429.141 318.701 428.988 323.648 428.835 328.595 428.733 333.414 428.682 338.106 428.631 342.798 428.529 347.541 428.376 352.335 428.223 357.129 427.993 362.433 427.687 368.247 426.361 368.757 424.627 369.191 422.485 369.548 420.343 369.905 418.201 370.083 416.059 370.083 411.571 370.083 408.078 369.369 405.579 367.941 403.08 366.513 401.83 363.912 401.83 360.138L406.267 282.108C407.083 280.782 408.868 279.354 411.622 277.824 414.376 276.294 418.252 275.529 423.25 275.529Z" stroke="#2F5597" stroke-width="3" stroke-linejoin="round" stroke-miterlimit="10" fill="#FFFFFF" fill-rule="evenodd"/><text fill-opacity="0" font-family="Arial,Arial_MSFontService,Arial" font-size="94.554" x="401.83" y="358.264">M</text><path d="M864.482 312.555C859.484 312.555 855.735 313.958 853.236 316.763 850.737 319.568 849.488 323.571 849.488 328.773 849.488 334.689 850.737 338.948 853.236 341.549 855.735 344.15 858.923 345.45 862.799 345.45 866.981 345.45 870.296 344.481 872.744 342.543L872.744 314.391C872.03 313.983 870.984 313.575 869.607 313.167 868.23 312.759 866.522 312.555 864.482 312.555ZM648.236 312.555C642.728 312.555 638.495 314.136 635.537 317.298 632.579 320.46 631.1 325.254 631.1 331.68 631.1 338.004 632.477 342.773 635.231 345.986 637.985 349.199 641.963 350.805 647.165 350.805 649.001 350.805 650.658 350.525 652.137 349.964 653.616 349.402 654.764 348.765 655.58 348.051L655.58 314.391C653.54 313.167 651.092 312.555 648.236 312.555ZM559.034 311.178C556.586 311.178 554.469 311.586 552.684 312.402 550.899 313.218 549.446 314.264 548.324 315.539 547.202 316.814 546.36 318.242 545.799 319.823 545.238 321.404 544.907 323.01 544.805 324.642L570.968 320.358C570.662 318.318 569.54 316.278 567.602 314.238 565.664 312.198 562.808 311.178 559.034 311.178ZM796.237 294.195C798.481 294.195 800.495 294.348 802.28 294.654 804.065 294.96 805.57 295.572 806.794 296.49 808.018 297.408 808.961 298.658 809.624 300.239 810.287 301.82 810.619 303.885 810.619 306.435L810.619 368.706C809.497 368.91 807.839 369.191 805.646 369.548 803.453 369.905 801.235 370.083 798.991 370.083 796.747 370.083 794.732 369.93 792.947 369.624 791.162 369.318 789.658 368.706 788.434 367.788 787.21 366.87 786.266 365.621 785.603 364.04 784.94 362.458 784.609 360.393 784.609 357.843L784.609 295.572C785.731 295.368 787.388 295.088 789.581 294.73 791.774 294.374 793.993 294.195 796.237 294.195ZM710.237 294.195C712.481 294.195 714.495 294.348 716.28 294.654 718.065 294.96 719.57 295.572 720.794 296.49 722.018 297.408 722.961 298.658 723.624 300.239 724.287 301.82 724.619 303.885 724.619 306.435L724.619 368.706C723.497 368.91 721.839 369.191 719.646 369.548 717.453 369.905 715.235 370.083 712.991 370.083 710.747 370.083 708.732 369.93 706.947 369.624 705.162 369.318 703.658 368.706 702.434 367.788 701.21 366.87 700.266 365.621 699.603 364.04 698.94 362.458 698.609 360.393 698.609 357.843L698.609 295.572C699.731 295.368 701.388 295.088 703.581 294.73 705.774 294.374 707.993 294.195 710.237 294.195ZM863.258 292.206C869.072 292.206 874.35 292.945 879.093 294.424 883.836 295.904 887.84 297.816 891.104 300.162 893.144 301.59 894.75 303.171 895.923 304.905 897.096 306.639 897.683 308.883 897.683 311.637L897.683 365.187C897.683 370.593 896.663 375.26 894.623 379.187 892.583 383.113 889.803 386.378 886.284 388.979 882.765 391.579 878.634 393.492 873.891 394.716 869.148 395.94 864.074 396.552 858.668 396.552 849.386 396.552 842.093 395.303 836.789 392.803 831.485 390.305 828.833 386.25 828.833 380.64 828.833 378.294 829.317 376.229 830.286 374.444 831.255 372.659 832.352 371.307 833.576 370.389 836.534 372.021 839.874 373.398 843.597 374.52 847.32 375.642 851.171 376.203 855.149 376.203 860.657 376.203 865.043 375.285 868.307 373.449 871.571 371.613 873.203 368.655 873.203 364.575L873.203 362.127C869.021 363.963 863.921 364.881 857.903 364.881 853.313 364.881 848.952 364.193 844.821 362.816 840.69 361.439 837.069 359.297 833.958 356.389 830.847 353.483 828.348 349.734 826.461 345.144 824.574 340.554 823.631 335.097 823.631 328.773 823.631 322.551 824.625 317.145 826.614 312.555 828.603 307.965 831.357 304.165 834.876 301.156 838.395 298.148 842.577 295.904 847.422 294.424 852.267 292.945 857.546 292.206 863.258 292.206ZM559.034 292.206C564.44 292.206 569.361 293.022 573.798 294.654 578.235 296.286 582.06 298.53 585.273 301.386 588.486 304.242 590.985 307.659 592.77 311.637 594.555 315.615 595.448 319.95 595.448 324.642 595.448 328.11 594.479 330.762 592.541 332.598 590.603 334.434 587.9 335.607 584.432 336.117L546.641 341.778C547.763 345.144 550.058 347.669 553.526 349.352 556.994 351.035 560.972 351.876 565.46 351.876 569.642 351.876 573.594 351.341 577.317 350.27 581.04 349.199 584.075 347.949 586.421 346.521 588.053 347.541 589.43 348.969 590.552 350.805 591.674 352.641 592.235 354.579 592.235 356.619 592.235 361.209 590.093 364.626 585.809 366.87 582.545 368.604 578.873 369.777 574.793 370.389 570.713 371.001 566.888 371.307 563.318 371.307 557.3 371.307 551.715 370.466 546.564 368.783 541.413 367.1 536.925 364.575 533.1 361.209 529.275 357.843 526.266 353.61 524.073 348.51 521.88 343.41 520.784 337.443 520.784 330.609 520.784 323.877 521.88 318.089 524.073 313.243 526.266 308.398 529.148 304.421 532.718 301.31 536.288 298.199 540.368 295.904 544.958 294.424 549.548 292.945 554.24 292.206 559.034 292.206ZM1015.78 278.13C1020.27 278.13 1023.76 278.921 1026.26 280.502 1028.76 282.083 1030.01 285.423 1030.01 290.523L1030.01 300.315 1050.05 300.315C1050.66 301.437 1051.25 302.84 1051.81 304.523 1052.37 306.206 1052.65 308.067 1052.65 310.107 1052.65 313.677 1051.86 316.253 1050.28 317.833 1048.7 319.415 1046.58 320.205 1043.93 320.205L1030.01 320.205 1030.01 343.308C1030.01 345.96 1030.85 347.847 1032.53 348.969 1034.21 350.091 1036.59 350.652 1039.65 350.652 1041.18 350.652 1042.76 350.525 1044.39 350.27 1046.02 350.014 1047.45 349.683 1048.67 349.275 1049.59 350.397 1050.38 351.647 1051.04 353.023 1051.71 354.401 1052.04 356.058 1052.04 357.996 1052.04 361.872 1050.59 365.034 1047.68 367.482 1044.77 369.93 1039.65 371.154 1032.3 371.154 1023.33 371.154 1016.42 369.114 1011.57 365.034 1006.73 360.954 1004.3 354.324 1004.3 345.144L1004.3 279.66C1005.42 279.354 1007.03 279.023 1009.12 278.666 1011.21 278.309 1013.43 278.13 1015.78 278.13ZM925.931 267.726C928.175 267.726 930.189 267.879 931.974 268.185 933.759 268.491 935.264 269.103 936.488 270.021 937.712 270.939 938.655 272.189 939.318 273.77 939.981 275.35 940.313 277.416 940.313 279.966L940.313 294.96C941.639 294.45 943.653 293.864 946.356 293.201 949.059 292.538 952.043 292.206 955.307 292.206 965.405 292.206 973.284 294.73 978.945 299.78 984.606 304.828 987.437 312.351 987.437 322.347L987.437 368.706C986.417 369.012 984.81 369.318 982.617 369.624 980.424 369.93 978.155 370.083 975.809 370.083 973.565 370.083 971.55 369.93 969.765 369.624 967.98 369.318 966.476 368.706 965.252 367.788 964.028 366.87 963.084 365.621 962.421 364.04 961.758 362.458 961.427 360.393 961.427 357.843L961.427 323.877C961.427 319.695 960.381 316.763 958.29 315.079 956.199 313.397 953.624 312.555 950.564 312.555 948.524 312.555 946.586 312.81 944.75 313.32 942.914 313.83 941.435 314.442 940.313 315.156L940.313 368.706C939.293 369.012 937.686 369.318 935.493 369.624 933.3 369.93 931.031 370.083 928.685 370.083 926.441 370.083 924.426 369.93 922.641 369.624 920.856 369.318 919.352 368.706 918.128 367.788 916.904 366.87 915.96 365.621 915.297 364.04 914.634 362.458 914.303 360.393 914.303 357.843L914.303 269.103C915.425 268.899 917.082 268.618 919.275 268.262 921.468 267.905 923.687 267.726 925.931 267.726ZM753.084 267.726C755.328 267.726 757.342 267.879 759.127 268.185 760.912 268.491 762.417 269.103 763.641 270.021 764.865 270.939 765.808 272.189 766.471 273.77 767.134 275.35 767.466 277.416 767.466 279.966L767.466 368.706C766.344 368.91 764.686 369.191 762.493 369.548 760.3 369.905 758.082 370.083 755.838 370.083 753.594 370.083 751.579 369.93 749.794 369.624 748.009 369.318 746.505 368.706 745.281 367.788 744.057 366.87 743.113 365.621 742.45 364.04 741.787 362.458 741.456 360.393 741.456 357.843L741.456 269.103C742.578 268.899 744.235 268.618 746.428 268.262 748.621 267.905 750.84 267.726 753.084 267.726ZM667.208 267.726C669.452 267.726 671.466 267.879 673.251 268.185 675.036 268.491 676.541 269.103 677.765 270.021 678.989 270.939 679.907 272.189 680.519 273.77 681.131 275.35 681.437 277.416 681.437 279.966L681.437 352.488C681.437 357.282 679.193 361.107 674.705 363.963 671.747 365.901 667.922 367.609 663.23 369.089 658.538 370.568 653.132 371.307 647.012 371.307 640.382 371.307 634.44 370.389 629.187 368.553 623.934 366.717 619.497 364.065 615.876 360.597 612.255 357.129 609.501 352.973 607.614 348.128 605.727 343.283 604.784 337.8 604.784 331.68 604.784 324.948 605.804 319.109 607.844 314.161 609.884 309.215 612.714 305.109 616.335 301.845 619.956 298.581 624.189 296.159 629.034 294.578 633.879 292.997 639.107 292.206 644.717 292.206 646.757 292.206 648.746 292.385 650.684 292.742 652.622 293.099 654.203 293.532 655.427 294.042L655.427 269.256C656.447 268.95 658.079 268.618 660.323 268.262 662.567 267.905 664.862 267.726 667.208 267.726ZM797.614 260.076C801.898 260.076 805.34 261.402 807.941 264.054 810.542 266.706 811.843 269.97 811.843 273.846 811.843 277.722 810.542 280.986 807.941 283.638 805.34 286.29 801.898 287.616 797.614 287.616 793.33 287.616 789.887 286.29 787.286 283.638 784.685 280.986 783.385 277.722 783.385 273.846 783.385 269.97 784.685 266.706 787.286 264.054 789.887 261.402 793.33 260.076 797.614 260.076ZM711.614 260.076C715.898 260.076 719.34 261.402 721.941 264.054 724.542 266.706 725.843 269.97 725.843 273.846 725.843 277.722 724.542 280.986 721.941 283.638 719.34 286.29 715.898 287.616 711.614 287.616 707.33 287.616 703.887 286.29 701.286 283.638 698.685 280.986 697.385 277.722 697.385 273.846 697.385 269.97 698.685 266.706 701.286 264.054 703.887 261.402 707.33 260.076 711.614 260.076Z" stroke="#2F5597" stroke-width="3" stroke-linejoin="round" stroke-miterlimit="10" fill="#FFFFFF" fill-rule="evenodd"/><text fill-opacity="0" font-family="Arial,Arial_MSFontService,Arial" font-size="136.476" x="520.784" y="379.492">edilight</text><path d="M697 272.5C697 264.492 703.492 258 711.5 258 719.508 258 726 264.492 726 272.5 726 280.508 719.508 287 711.5 287 703.492 287 697 280.508 697 272.5Z" fill="#94C639" fill-rule="evenodd"/><path d="M785 272.5C785 264.492 791.492 258 799.5 258 807.508 258 814 264.492 814 272.5 814 280.508 807.508 287 799.5 287 791.492 287 785 280.508 785 272.5Z" fill="#94C639" fill-rule="evenodd"/></g></svg>