<svg width="800" height="800" viewBox="0 0 48 48" xmlns="http://www.w3.org/2000/svg" xmlns:xlink="http://www.w3.org/1999/xlink" stroke="#FFFFFF" fill="#FFFFFF" overflow="hidden"><g id="SVGRepo_bgCarrier" stroke-width="0"></g><g id="SVGRepo_tracerCarrier" stroke-linecap="round" stroke-linejoin="round"></g><g id="SVGRepo_iconCarrier"><g id="Layer_2"><g id="invisible_box"><rect x="0" y="0" width="48" height="48" stroke="none" fill="none"/></g><g id="icons_Q2"><path d="M16 6 16 14C16 15.1046 15.1046 16 14 16L6 16C4.89543 16 4 15.1046 4 14L4 6C4 4.89543 4.89543 4 6 4L14 4C15.1046 4 16 4.89543 16 6ZM28 4 20 4C18.8954 4 18 4.89543 18 6L18 14C18 15.1046 18.8954 16 20 16L28 16C29.1046 16 30 15.1046 30 14L30 6C30 4.89543 29.1046 4 28 4ZM42 4 34 4C32.8954 4 32 4.89543 32 6L32 14C32 15.1046 32.8954 16 34 16L42 16C43.1046 16 44 15.1046 44 14L44 6C44 4.89543 43.1046 4 42 4ZM14 18 6 18C4.89543 18 4 18.8954 4 20L4 28C4 29.1046 4.89543 30 6 30L14 30C15.1046 30 16 29.1046 16 28L16 20C16 18.8954 15.1046 18 14 18ZM28 18 20 18C18.8954 18 18 18.8954 18 20L18 28C18 29.1046 18.8954 30 20 30L28 30C29.1046 30 30 29.1046 30 28L30 20C30 18.8954 29.1046 18 28 18ZM42 18 34 18C32.8954 18 32 18.8954 32 20L32 28C32 29.1046 32.8954 30 34 30L42 30C43.1046 30 44 29.1046 44 28L44 20C44 18.8954 43.1046 18 42 18ZM14 32 6 32C4.89543 32 4 32.8954 4 34L4 42C4 43.1046 4.89543 44 6 44L14 44C15.1046 44 16 43.1046 16 42L16 34C16 32.8954 15.1046 32 14 32ZM28 32 20 32C18.8954 32 18 32.8954 18 34L18 42C18 43.1046 18.8954 44 20 44L28 44C29.1046 44 30 43.1046 30 42L30 34C30 32.8954 29.1046 32 28 32ZM42 32 34 32C32.8954 32 32 32.8954 32 34L32 42C32 43.1046 32.8954 44 34 44L42 44C43.1046 44 44 43.1046 44 42L44 34C44 32.8954 43.1046 32 42 32Z" stroke="none"/></g></g></g></svg>