<!DOCTYPE svg PUBLIC "-//W3C//DTD SVG 1.1//EN" "http://www.w3.org/Graphics/SVG/1.1/DTD/svg11.dtd">
<!-- Uploaded to: SVG Repo, www.svgrepo.com, Transformed by: SVG Repo Mixer Tools -->
<svg fill="#fff" width="800px" height="800px" viewBox="0 0 256 256" id="Flat" xmlns="http://www.w3.org/2000/svg" stroke="#fff">
<g id="SVGRepo_bgCarrier" stroke-width="0"/>
<g id="SVGRepo_tracerCarrier" stroke-linecap="round" stroke-linejoin="round"/>
<g id="SVGRepo_iconCarrier"> <path d="M149.73145,190.00586A8,8,0,0,1,141.98389,200H18.01611a8,8,0,0,1-7.74756-9.99414A71.90424,71.90424,0,0,1,50.89,142.13013a48,48,0,1,1,58.22,0A71.90424,71.90424,0,0,1,149.73145,190.00586ZM152,88h96a8,8,0,0,0,0-16H152a8,8,0,0,0,0,16Zm96,80H176a8,8,0,0,0,0,16h72a8,8,0,0,0,0-16Zm0-48H152a8,8,0,0,0,0,16h96a8,8,0,0,0,0-16Z"/> </g>
</svg>