<svg width="96" height="96" xmlns="http://www.w3.org/2000/svg" xmlns:xlink="http://www.w3.org/1999/xlink" overflow="hidden"><defs><clipPath id="clip0"><rect x="280" y="0" width="96" height="96"/></clipPath></defs><g clip-path="url(#clip0)" transform="translate(-280 0)"><path d="M312.015 37.6726C310.453 36.1105 310.453 33.5779 312.015 32.0158 313.578 30.4537 316.11 30.4537 317.672 32.0158L328.023 42.3664 338.363 32.0263C339.925 30.4642 342.458 30.4642 344.02 32.0263 345.582 33.5884 345.582 36.121 344.02 37.6832L333.68 48.0232 344.016 58.3588C345.578 59.9212 345.578 62.4536 344.016 64.0156 342.453 65.578 339.921 65.578 338.358 64.0156L328.023 53.68 317.684 64.0192C316.122 65.5812 313.589 65.5812 312.027 64.0192 310.465 62.4568 310.465 59.9244 312.027 58.362L322.366 48.0232 312.015 37.6726Z" fill="#0F0F0F"/><path d="M372 48C372 72.3004 352.3 92 328 92 303.699 92 284 72.3004 284 48 284 23.6995 303.699 4 328 4 352.3 4 372 23.6995 372 48ZM292.027 48C292.027 67.8672 308.133 83.9728 328 83.9728 347.867 83.9728 363.973 67.8672 363.973 48 363.973 28.1328 347.867 12.0273 328 12.0273 308.133 12.0273 292.027 28.1328 292.027 48Z" fill="#0F0F0F" fill-rule="evenodd"/></g></svg>