<svg width="800" height="800" viewBox="0 0 24 24" xmlns="http://www.w3.org/2000/svg" xmlns:xlink="http://www.w3.org/1999/xlink" overflow="hidden"><g id="SVGRepo_bgCarrier" stroke-width="0"></g><g id="SVGRepo_tracerCarrier" stroke-linecap="round" stroke-linejoin="round"></g><g id="SVGRepo_iconCarrier"><g id="页面-1" fill="none" fill-rule="evenodd"><g id="Arrow" transform="translate(-288 0)"><g id="down_line" transform="translate(288 0)"><path d="M24 0 24 24 0 24 0 0 24 0ZM12.5935 23.2578 12.5819 23.2595 12.5109 23.295 12.4919 23.2987 12.4919 23.2987 12.4767 23.295 12.4057 23.2595C12.3958 23.2564 12.387 23.259 12.3821 23.2649L12.378 23.2758 12.3609 23.7031 12.3659 23.7235 12.3769 23.7357 12.4805 23.8097 12.4953 23.8136 12.4953 23.8136 12.5071 23.8097 12.6107 23.7357 12.6233 23.7197 12.6233 23.7197 12.6267 23.7031 12.6096 23.2758C12.6076 23.2657 12.601 23.2593 12.5935 23.2578L12.5935 23.2578ZM12.8584 23.1453 12.8445 23.1473 12.6598 23.2397 12.6499 23.2499 12.6499 23.2499 12.6472 23.2611 12.6651 23.6906 12.6699 23.7034 12.6699 23.7034 12.6784 23.7105 12.8793 23.8032C12.8914 23.8069 12.9022 23.803 12.9078 23.7952L12.9118 23.7812 12.8777 23.1665C12.8753 23.1546 12.8674 23.147 12.8584 23.1453L12.8584 23.1453ZM12.143 23.1473C12.1332 23.1424 12.1222 23.1453 12.1156 23.1526L12.1099 23.1665 12.0758 23.7812C12.0751 23.7927 12.0828 23.8019 12.0926 23.8046L12.1083 23.8032 12.3092 23.7105 12.3186 23.7024 12.3186 23.7024 12.3225 23.6906 12.3404 23.2611 12.3372 23.2485 12.3372 23.2485 12.3278 23.2397 12.143 23.1473Z" id="MingCute" fill-rule="nonzero"/><path d="M12.7071 15.7072C12.3166 16.0977 11.6834 16.0977 11.2929 15.7072L5.63604 10.0503C5.24551 9.65982 5.24551 9.02666 5.63604 8.63613 6.02656 8.24561 6.65973 8.24561 7.05025 8.63613L12 13.5859 16.9497 8.63613C17.3403 8.24561 17.9734 8.24561 18.364 8.63613 18.7545 9.02666 18.7545 9.65982 18.364 10.0503L12.7071 15.7072Z" id="路径" fill="#FFFFFF"/></g></g></g></g></svg>