<svg width="800" height="800" viewBox="0 0 512 512" xmlns="http://www.w3.org/2000/svg" xmlns:xlink="http://www.w3.org/1999/xlink" id="Layer_1" xml:space="preserve" overflow="hidden"><circle cx="256" cy="256" r="256" fill="#F0F0F0"/><path d="M256 0C145.929 0 52.094 69.472 15.923 166.957L496.078 166.957C459.906 69.472 366.071 0 256 0Z" fill="#D80027"/><path d="M256 512C366.071 512 459.906 442.528 496.077 345.043L15.923 345.043C52.094 442.528 145.929 512 256 512Z"/><path d="M345.043 228.174 278.26 228.174C278.26 215.88 268.293 205.913 255.999 205.913 243.705 205.913 233.738 215.88 233.738 228.174L166.955 228.174C166.955 240.469 177.664 250.435 189.958 250.435L189.216 250.435C189.216 262.73 199.182 272.696 211.477 272.696 211.477 284.991 221.443 294.957 233.738 294.957L278.26 294.957C290.555 294.957 300.521 284.991 300.521 272.696 312.816 272.696 322.782 262.73 322.782 250.435L322.041 250.435C334.335 250.435 345.043 240.469 345.043 228.174Z" fill="#FF9811"/></svg>