<svg width="800" height="800" viewBox="0 0 956.199 956.199" xmlns="http://www.w3.org/2000/svg" xmlns:xlink="http://www.w3.org/1999/xlink" id="Capa_1" fill="#002B47" xml:space="preserve" overflow="hidden"><g id="SVGRepo_bgCarrier" stroke-width="0"></g><g id="SVGRepo_tracerCarrier" stroke-linecap="round" stroke-linejoin="round"></g><g id="SVGRepo_iconCarrier"><g><path d="M152.2 773.5C169.8 791.1 192.8 799.9 215.8 799.9 238.8 799.9 261.9 791.099 279.4 773.5L513.6 539.301C530.5 522.4 540 499.5 540 475.7 540 451.801 530.5 428.9 513.6 412.1L284.4 182.7C249.3 147.6 192.3 147.6 157.1 182.7 122 217.8 122 274.8 157.1 310L322.7 475.6 152.2 646.199C117 681.4 117 738.301 152.2 773.5Z"/><path d="M740.399 956.199C790.099 956.199 830.399 915.9 830.399 866.199L830.399 90C830.399 40.3 790.099 0 740.399 0 690.699 0 650.399 40.3 650.399 90L650.399 866.199C650.399 915.9 690.699 956.199 740.399 956.199Z"/></g></g></svg>