<svg width="800" height="800" viewBox="0 0 512 512" xmlns="http://www.w3.org/2000/svg" xmlns:xlink="http://www.w3.org/1999/xlink" id="Layer_1" xml:space="preserve" overflow="hidden"><g><path d="M48.254 451.913 241.993 73.885C247.843 62.471 264.157 62.471 270.006 73.885L463.746 451.913C469.114 462.387 461.508 474.83 449.739 474.83L62.26 474.83C50.492 474.83 42.886 462.385 48.254 451.913Z" fill="#F3B41B"/><path d="M508.511 495.011C504.188 502.084 496.657 506.307 488.367 506.307L23.633 506.307C15.343 506.307 7.812 502.085 3.489 495.011-0.834 487.937-1.159 479.309 2.622 471.931L234.99 18.531C239.049 10.611 247.1 5.691 255.999 5.691 264.899 5.691 272.95 10.611 277.008 18.532L509.376 471.93C513.159 479.31 512.834 487.937 508.511 495.011Z" fill="#F3B41B"/></g><g><path d="M68.133 447.632 248.997 94.727C251.922 89.02 260.078 89.02 263.004 94.727L443.869 447.631C446.553 452.868 442.75 459.09 436.866 459.09L75.136 459.09C69.252 459.091 65.449 452.869 68.133 447.632Z" fill="#F7D04A"/><path d="M508.511 495.011C504.188 502.084 496.657 506.307 488.367 506.307L23.633 506.307C15.343 506.307 7.812 502.085 3.489 495.011-0.834 487.937-1.159 479.309 2.622 471.931L234.99 18.531C239.049 10.611 247.1 5.691 255.999 5.691 264.899 5.691 272.95 10.611 277.008 18.532L509.376 471.93C513.159 479.31 512.834 487.937 508.511 495.011ZM62.26 474.83 449.741 474.83C461.51 474.83 469.116 462.386 463.748 451.913L270.006 73.885C264.156 62.471 247.842 62.471 241.993 73.885L48.254 451.913C42.886 462.385 50.492 474.83 62.26 474.83Z" fill="#F7D04A"/></g><path d="M269.64 391.938 242.359 391.938C238.012 391.938 234.49 395.46 234.49 399.807L234.49 427.088C234.49 431.435 238.012 434.957 242.359 434.957L269.64 434.957C273.987 434.957 277.51 431.435 277.51 427.088L277.51 399.807C277.51 395.46 273.987 391.938 269.64 391.938Z" fill="#C74B38"/><g><path d="M301.529 135.393 336.901 135.393 311.089 85.028 275.717 85.028Z" fill="#666666"/><path d="M236.282 85.028 200.911 85.028 175.099 135.393 210.47 135.393Z" fill="#666666"/><path d="M183.583 187.856 148.212 187.856 122.399 238.221 157.771 238.221Z" fill="#666666"/><path d="M354.23 238.221 389.6 238.221 363.788 187.856 328.417 187.856Z" fill="#666666"/><path d="M406.929 341.049 442.301 341.049 416.489 290.684 381.117 290.684Z" fill="#666666"/><path d="M130.883 290.684 95.512 290.684 69.7 341.049 105.071 341.049Z" fill="#666666"/><path d="M78.184 393.512 42.812 393.512 17 443.876 52.372 443.876Z" fill="#666666"/><path d="M459.628 443.876 495 443.876 469.188 393.512 433.816 393.512Z" fill="#666666"/><path d="M461.368 447.271 464.762 443.876 459.628 443.876Z" fill="#666666"/><path d="M374.453 474.83 342.975 506.308 402.331 506.308 433.809 474.83Z" fill="#666666"/><path d="M229.655 474.83 198.177 506.308 257.533 506.308 289.011 474.83Z" fill="#666666"/><path d="M84.856 474.83 53.378 506.308 112.734 506.308 144.212 474.83Z" fill="#666666"/></g><path d="M278.034 216.754 278.034 261.146C278.034 265.492 274.511 269.015 270.165 269.015L241.835 269.015C237.489 269.015 233.966 265.492 233.966 261.146L233.966 216.754C233.966 210.096 226.162 206.385 221.079 210.685 209.199 220.735 201.964 235.678 201.964 251.925 201.964 273.784 214.815 293.039 234.491 301.517L234.491 368.17C234.491 372.516 238.014 376.039 242.36 376.039L269.641 376.039C273.987 376.039 277.511 372.516 277.511 368.17L277.511 301.517C297.187 293.039 310.038 273.784 310.038 251.925 310.038 235.678 302.802 220.736 290.922 210.685 285.839 206.385 278.034 210.096 278.034 216.754Z" fill="#C74B38"/></svg>