<svg width="1105.04" height="782.74" viewBox="0 0 1105.04 782.74" xmlns="http://www.w3.org/2000/svg" xmlns:xlink="http://www.w3.org/1999/xlink" overflow="hidden"><defs><linearGradient x1="403.57" y1="833.5" x2="403.57" y2="218.16" gradientUnits="userSpaceOnUse" id="ac3cc305-f6db-42f4-bbbd-32121ee27a74-107"><stop offset="0" stop-color="#808080" stop-opacity="0.25"/><stop offset="0.54" stop-color="#808080" stop-opacity="0.12"/><stop offset="1" stop-color="#808080" stop-opacity="0.1"/></linearGradient><linearGradient x1="940.67" y1="825.72" x2="940.67" y2="263.72" xlink:href="#ac3cc305-f6db-42f4-bbbd-32121ee27a74-107" id="ad14f186-b27f-416c-b629-0bafa2f1236e-108"></linearGradient></defs><ellipse cx="367.38" cy="766.65" rx="97.44" ry="15.65" fill="#6C63FF" opacity="0.1"/><ellipse cx="897.05" cy="767.09" rx="121.59" ry="15.65" fill="#6C63FF" opacity="0.1"/><path d="M61.08 396.83 162.57 396.83 162.57 535.16 68.51 535.16C68.26 536.58 68.02 538.01 67.76 539.44L162.57 539.44 162.57 651C162.4 650.95 162.25 650.89 162.09 650.83 159.41 649.77 156.75 648.65 154.09 647.45L152.39 646.68C149.723 645.42 147.057 644.087 144.39 642.68 143.46 642.19 142.53 641.68 141.61 641.16 126.806 632.867 113.357 622.359 101.73 610 101.39 609.67 101.07 609.32 100.73 609 99.11 607.24 97.52 605.46 95.98 603.64L94.28 601.64C92.46 599.41 90.7 597.12 88.99 594.8 88.74 594.46 88.5 594.12 88.24 593.8 81.2855 584.157 75.511 573.716 71.04 562.7 70.9 562.37 70.78 562.01 70.65 561.7 69.2767 558.167 68.06 554.6 67 551 66.54 549.49 66.1 548 65.72 546.43 65.58 545.97 65.46 545.52 65.35 545.07 59.67 522.9 59 499.87 59 477 59 474.33 59 471.65 59 469 59 459.75 59.11 450.44 59.27 441.14 59.27 438.73 59.37 436.33 59.42 433.91 59.56 427.77 59.76 421.63 60.02 415.49 60.08 413.78 60.16 412.08 60.25 410.38 60.25 409.4 60.3 408.42 60.4 407.44 60.64 403.88 60.84 400.35 61.08 396.83Z" fill="#6C63FF" opacity="0.1" transform="translate(-47.24 -58.63)"/><path d="M162.57 242.81 106.9 242.81C115.949 228.646 125.837 215.035 136.51 202.05 144.78 191.89 153.51 181.99 162.57 172.45Z" fill="#6C63FF" opacity="0.1" transform="translate(-47.24 -58.63)"/><path d="M162.57 247.09 162.57 392.55 61.4 392.55C61.4 392.13 61.47 391.7 61.5 391.28 61.59 390.13 61.68 388.98 61.78 387.84 61.89 386.5 62.01 385.15 62.14 383.84 62.27 382.53 62.41 380.93 62.56 379.48 62.71 378.03 62.85 376.56 63.02 375.11 63.19 373.66 63.34 372.21 63.52 370.77 63.7 369.33 63.86 367.87 64.05 366.43 64.2 365.23 64.36 364.04 64.52 362.84 64.75 361.15 64.99 359.45 65.25 357.77 65.25 357.52 65.32 357.26 65.36 357.02 67.1852 344.722 69.6721 332.531 72.81 320.5 76.0946 307.88 80.2889 295.514 85.36 283.5 90.7496 270.932 97.0602 258.779 104.24 247.14Z" fill="#6C63FF" opacity="0.1" transform="translate(-47.24 -58.63)"/><path d="M186.8 396.82 186.8 535.16 403.57 535.16 403.57 396.82ZM186.8 539.43 186.8 658.23C188.04 658.49 189.27 658.74 190.49 658.95 192.15 659.27 193.8 659.56 195.49 659.81 195.81 659.86 196.14 659.91 196.49 659.94 197.15 660.05 197.83 660.14 198.49 660.23 200.16 660.46 201.82 660.65 203.49 660.8 204.28 660.88 205.08 660.95 205.88 661.01L207.81 661.16 207.81 661.16C208.86 661.24 209.9 661.3 210.93 661.33 211.57 661.33 212.21 661.39 212.87 661.41 213.37 661.41 213.87 661.41 214.39 661.41 214.91 661.41 215.65 661.41 216.28 661.41 217.14 661.41 218 661.41 218.85 661.41L220 661.41C220.86 661.41 221.72 661.41 222.57 661.33L222.63 661.33C223.22 661.33 223.82 661.33 224.42 661.25 224.587 661.26 224.753 661.26 224.92 661.25 225.42 661.25 225.92 661.25 226.4 661.18L226.75 661.18 230.1 660.92C231.2 660.82 232.31 660.69 233.43 660.57L235.71 660.3C244.986 659 254.158 657.049 263.16 654.46 283.38 648.82 303.16 640.93 323.37 635.15 349.5 627.7 378.37 624.04 403.62 633.15L403.62 539.43ZM403.57 242.81 403.57 58.64C379.837 58.3829 356.169 61.1587 333.14 66.9 278.25 80.69 229 110.6 186.8 148.8L186.8 242.8 197.68 242.8 197.68 247.07 186.8 247.07 186.8 392.55 403.57 392.55 403.57 247.08 242.35 247.08 242.35 242.81ZM682 180.6C668.42 180.12 654.92 175.82 642.71 169.18 619.36 156.48 600.71 136.87 579.87 120.32 536.57 85.85 482.87 65.05 427.78 59.89L427.78 242.81 737.23 242.81 738 242ZM710.19 175.6 740.08 208.4 740.08 167C730.07 168.24 721.3 171.19 710.23 175.56ZM740.08 687.73 740.08 539.43 676.39 539.43C676.22 538.8 676.05 538.16 675.85 537.52 676.04 538.16 676.2 538.8 676.38 539.43L427.82 539.43 427.82 646.68C430.18 648.43 432.51 650.27 434.82 652.14L434.82 652.14C437.31 654.14 439.77 656.25 442.24 658.32L444.73 660.38C445.92 661.38 447.12 662.38 448.33 663.32 450.73 665.267 453.153 667.187 455.6 669.08 456.81 670.08 458.05 670.98 459.28 671.92 478.807 686.85 499.406 700.323 520.91 712.23 525.73 714.897 530.593 717.5 535.5 720.04 538.77 721.71 542.06 723.37 545.36 724.98 550.32 727.4 555.32 729.733 560.36 731.98L560.36 731.98C606.826 752.838 655.961 767.151 706.36 774.51 717.553 776.163 728.79 777.463 740.07 778.41L740.07 687.72 741.07 687.72ZM427.82 247.08 427.82 392.55 740.12 392.55 740.12 247.08ZM427.82 396.82 427.82 535.16 740.12 535.16 740.12 396.82ZM764.36 166.82 764.36 213 802.51 171.14C789.87 169.1 777.153 167.643 764.36 166.77ZM764.36 396.87 764.36 535.16 1068.11 535.16 1068.11 396.82ZM1067 698.71 1068.07 539.43 764.36 539.43 764.36 780C783.925 780.822 803.52 780.588 823.06 779.3L823.06 779.3 823.4 779.3C832.733 778.713 842.023 777.86 851.27 776.74L851.48 776.74C900.811 770.999 949.047 758.128 994.68 738.53M1126.68 419.6C1125.54 416.91 1124.35 414.24 1123.14 411.6 1120.88 406.6 1118.49 401.74 1116.03 396.88L1092.33 396.88 1092.33 535.16 1152.25 535.16C1152.22 496 1142.31 456 1126.71 419.55ZM1092.33 539.48 1092.33 676.48C1109.21 660.3 1123.47 641.79 1133.74 620.63 1146.09 595.15 1151.74 567.56 1152.2 539.46ZM1092.33 356.56 1092.33 392.56 1113.81 392.56C1107.31 380.167 1100.15 368.133 1092.36 356.51ZM886.33 193.96C884.75 193.36 883.17 192.75 881.58 192.16 864.811 185.967 847.675 180.817 830.27 176.74L771.89 240.81 771.89 240.81 770.77 242 771.52 242.82 979.3 242.82C950.362 222.9 919.164 206.483 886.36 193.91ZM985.39 247.13 768.62 247.13 764.36 251.03 764.36 392.55 801.7 392.55 801.76 392.55 801.76 392.55 1068.15 392.55 1068.15 324C1044.05 294.856 1016.24 268.996 985.42 247.08Z" fill="#6C63FF" opacity="0.1" transform="translate(-47.24 -58.63)"/><path d="M162.57 320.46 162.57 392.55 61.4 392.55C61.4 392.13 61.47 391.7 61.5 391.28 61.59 390.13 61.68 388.98 61.78 387.84 61.89 386.5 62.01 385.15 62.14 383.84 62.27 382.53 62.41 380.93 62.56 379.48 62.71 378.03 62.85 376.56 63.02 375.11 63.19 373.66 63.34 372.21 63.52 370.77 63.7 369.33 63.86 367.87 64.05 366.43 64.2 365.23 64.36 364.04 64.52 362.84 64.75 361.15 64.99 359.45 65.25 357.77 65.25 357.52 65.32 357.26 65.36 357.02 67.1852 344.722 69.6721 332.531 72.81 320.5Z" fill="#6C63FF" opacity="0.1" transform="translate(-47.24 -58.63)"/><path d="M61.08 396.83 162.57 396.83 162.57 535.16 68.51 535.16C68.26 536.58 68.02 538.01 67.76 539.44L162.57 539.44 162.57 651C162.4 650.95 162.25 650.89 162.09 650.83 159.41 649.77 156.75 648.65 154.09 647.45L152.39 646.68C149.723 645.42 147.057 644.087 144.39 642.68 143.46 642.19 142.53 641.68 141.61 641.16 126.806 632.867 113.357 622.359 101.73 610 101.39 609.67 101.07 609.32 100.73 609 99.11 607.24 97.52 605.46 95.98 603.64L94.28 601.64C92.46 599.41 90.7 597.12 88.99 594.8 88.74 594.46 88.5 594.12 88.24 593.8 81.2855 584.157 75.511 573.716 71.04 562.7 70.9 562.37 70.78 562.01 70.65 561.7 69.2767 558.167 68.06 554.6 67 551 66.54 549.49 66.1 548 65.72 546.43 65.58 545.97 65.46 545.52 65.35 545.07 59.67 522.9 59 499.87 59 477 59 474.33 59 471.65 59 469 59 459.75 59.11 450.44 59.27 441.14 59.27 438.73 59.37 436.33 59.42 433.91 59.56 427.77 59.76 421.63 60.02 415.49 60.08 413.78 60.16 412.08 60.25 410.38 60.25 409.4 60.3 408.42 60.4 407.44 60.64 403.88 60.84 400.35 61.08 396.83Z" fill="#6C63FF" opacity="0.1" transform="translate(-47.24 -58.63)"/><path d="M215.87 209.28 215.87 333.92 139.56 333.92 139.56 209.28 150.44 209.28 150.44 167.08 195.1 167.08 195.1 209.28 215.87 209.28Z" fill="#6C63FF" opacity="0.1"/><rect x="139.57" y="338.19" width="76.3" height="138.33" fill="#6C63FF" opacity="0.1"/><path d="M186.8 539.44 263.11 539.44 263.11 654.44C254.108 657.026 244.936 658.975 235.66 660.27L233.38 660.55C232.26 660.68 231.15 660.79 230.05 660.9 228.95 661.01 227.81 661.09 226.7 661.16L226.35 661.16C225.87 661.16 225.35 661.22 224.88 661.23L224.37 661.23C223.77 661.23 223.17 661.29 222.57 661.31L222.57 661.31C221.72 661.36 220.87 661.37 220 661.38 219.63 661.38 219.28 661.38 218.91 661.38 218.05 661.38 217.2 661.38 216.34 661.38L214.45 661.38C213.94 661.38 213.45 661.38 212.92 661.38L210.99 661.31C209.99 661.31 208.91 661.2 207.87 661.13L207.87 661.13 205.95 660.99 203.56 660.77C201.88 660.62 200.21 660.43 198.56 660.2L196.56 659.92 195.56 659.78C193.89 659.52 192.24 659.24 190.56 658.92 189.33 658.71 188.11 658.45 186.87 658.2Z" fill="#6C63FF" opacity="0.1" transform="translate(-47.24 -58.63)"/><rect x="629.96" y="194.56" width="62.92" height="139.35" fill="#6C63FF" opacity="0.1"/><path d="M692.89 338.19 692.89 476.53 380.58 476.53 380.58 416.86 546.93 416.86 546.93 452.06 629.96 452.06 629.96 338.19 692.89 338.19Z" fill="#6C63FF" opacity="0.1"/><path d="M741.12 687.76 740.12 687.76 740.12 778.51C728.853 777.557 717.62 776.26 706.42 774.62 655.996 767.238 606.841 752.894 560.36 732 546.94 725.96 533.793 719.367 520.92 712.22 499.416 700.307 478.815 686.834 459.28 671.91 454.373 668.15 449.53 664.303 444.75 660.37 441.44 657.64 438.15 654.84 434.82 652.12 432.51 650.25 430.18 648.41 427.82 646.65L427.82 539.44 676.37 539.44C676.2 538.8 676.03 538.16 675.85 537.53 676.04 538.16 676.22 538.8 676.39 539.44L740.12 539.44 740.12 687.7C740.46 687.71 740.79 687.74 741.12 687.76Z" fill="#6C63FF" opacity="0.1" transform="translate(-47.24 -58.63)"/><path d="M904.22 242.81 863.22 242.81 863.22 230.07 881.6 230.07 881.6 192.12C883.193 192.7 884.78 193.297 886.36 193.91L886.36 230.07 904.22 230.07Z" fill="#6C63FF" opacity="0.1" transform="translate(-47.24 -58.63)"/><path d="M1003 392.55 801.72 392.55C801.72 392.55 801.72 392.55 801.79 392.6L801.7 392.55 764.36 392.55 764.36 253.2 774.94 253.2 774.94 356.2 823.29 356.2 823.29 295.2 863.23 295.2 863.23 247.09 904.23 247.09 904.23 295.24 944.17 295.24 944.17 356.24 1003 356.24Z" fill="#6C63FF" opacity="0.1" transform="translate(-47.24 -58.63)"/><path d="M764.36 396.82 764.36 535.16 1003 535.16 1003 396.82ZM1067.78 698 1068.11 588.5 1003 588.5 1003 539.5 764.36 539.5 764.36 780C783.925 780.822 803.52 780.588 823.06 779.3L823.06 779.3 823.4 779.3C832.733 778.713 842.023 777.86 851.27 776.74L851.48 776.74C900.811 770.999 949.047 758.128 994.68 738.53" fill="#6C63FF" opacity="0.1" transform="translate(-47.24 -58.63)"/><path d="M1096.57 539.44 1152.24 539.44C1151.75 567.53 1146.11 595.12 1133.77 620.6 1123.5 641.77 1109.23 660.28 1092.37 676.45L1092.37 588.45 1096.57 588.45Z" fill="#6C63FF" opacity="0.1" transform="translate(-47.24 -58.63)"/><path d="M1152.27 535.16 1096.57 535.16 1096.57 419.55 1126.71 419.55C1142.31 456 1152.22 496 1152.27 535.16Z" fill="#6C63FF" opacity="0.1" transform="translate(-47.24 -58.63)"/><rect x="659.18" y="233.3" width="33.71" height="43.69" fill="#6C63FF" opacity="0.1"/><rect x="659.18" y="323.86" width="33.71" height="10.06" fill="#6C63FF" opacity="0.1"/><rect x="659.18" y="338.19" width="33.71" height="29.35" fill="#6C63FF" opacity="0.1"/><rect x="659.18" y="414.42" width="33.71" height="43.69" fill="#6C63FF" opacity="0.1"/><rect x="659.18" y="504.98" width="33.71" height="43.69" fill="#6C63FF" opacity="0.1"/><path d="M740.12 687.7C740.46 687.7 740.79 687.7 741.12 687.76L740.12 687.76 740.12 697.91 706.42 697.91 706.42 654.17 740.12 654.17Z" fill="#6C63FF" opacity="0.1" transform="translate(-47.24 -58.63)"/><path d="M740.12 744.71 740.12 778.46C728.853 777.507 717.62 776.21 706.42 774.57L706.42 744.71Z" fill="#6C63FF" opacity="0.1" transform="translate(-47.24 -58.63)"/><rect x="380.58" y="473.32" width="144.47" height="3.21" fill="#6C63FF" opacity="0.1"/><rect x="380.58" y="480.8" width="144.47" height="12.3" fill="#6C63FF" opacity="0.1"/><rect x="380.58" y="533.42" width="144.47" height="19.78" fill="#6C63FF" opacity="0.1"/><path d="M572.28 652.15 572.28 671.93 459.28 671.93C454.373 668.183 449.527 664.337 444.74 660.39 441.43 657.66 438.15 654.86 434.81 652.15Z" fill="#6C63FF" opacity="0.1" transform="translate(-47.24 -58.63)"/><path d="M572.28 712.24 572.28 732 560.35 732C546.943 725.953 533.8 719.357 520.92 712.21Z" fill="#6C63FF" opacity="0.1" transform="translate(-47.24 -58.63)"/><rect x="775.83" y="351.6" width="28.44" height="28.44" fill="#6C63FF" opacity="0.1"/><rect x="160.05" y="219.09" width="28.44" height="28.44" fill="#6C63FF" opacity="0.1"/><rect x="160.05" y="285.15" width="28.44" height="28.44" fill="#6C63FF" opacity="0.1"/><rect x="160.05" y="351.21" width="28.44" height="28.44" fill="#6C63FF" opacity="0.1"/><rect x="160.05" y="417.26" width="28.44" height="28.44" fill="#6C63FF" opacity="0.1"/><rect x="160.05" y="483.32" width="28.44" height="28.44" fill="#6C63FF" opacity="0.1"/><rect x="160.05" y="549.38" width="28.44" height="28.44" fill="#6C63FF" opacity="0.1"/><rect x="884.4" y="351.6" width="28.44" height="28.44" fill="#6C63FF" opacity="0.1"/><rect x="775.83" y="421.75" width="28.44" height="28.44" fill="#6C63FF" opacity="0.1"/><rect x="884.4" y="421.75" width="28.44" height="28.44" fill="#6C63FF" opacity="0.1"/><rect x="775.83" y="491.89" width="28.44" height="28.44" fill="#6C63FF" opacity="0.1"/><rect x="884.4" y="491.89" width="28.44" height="28.44" fill="#6C63FF" opacity="0.1"/><rect x="775.83" y="562.04" width="28.44" height="28.44" fill="#6C63FF" opacity="0.1"/><rect x="884.4" y="562.04" width="28.44" height="28.44" fill="#6C63FF" opacity="0.1"/><rect x="775.83" y="632.19" width="28.44" height="28.44" fill="#6C63FF" opacity="0.1"/><rect x="884.4" y="632.19" width="28.44" height="28.44" fill="#6C63FF" opacity="0.1"/><path d="M775.83 720.67 775.83 702.33 804.26 702.33 804.26 718.06 775.83 720.67Z" fill="#6C63FF" opacity="0.1"/><path d="M65.24 357 65.24 373.27 162.57 373.27 162.57 357ZM74.94 372.25 67 372.25 67 358 75 358ZM84.63 372.25 76.63 372.25 76.63 358 84.63 358ZM94.3 372.25 86.3 372.25 86.3 358 94.3 358ZM103.99 372.25 96 372.25 96 358 104 358ZM113.67 372.25 105.67 372.25 105.67 358 113.67 358ZM123.36 372.25 115.36 372.25 115.36 358 123.36 358ZM133.05 372.25 125.05 372.25 125.05 358 133.05 358ZM142.73 372.25 134.73 372.25 134.73 358 142.73 358ZM152.41 372.25 144.41 372.25 144.41 358 152.41 358ZM162.09 372.25 154.09 372.25 154.09 358 162.09 358Z" fill="#6C63FF" opacity="0.1" transform="translate(-47.24 -58.63)"/><path d="M65.24 404.34 65.24 420.61 162.57 420.61 162.57 404.34ZM74.94 419.58 67 419.58 67 405.37 75 405.37ZM84.63 419.58 76.63 419.58 76.63 405.37 84.63 405.37ZM94.3 419.58 86.3 419.58 86.3 405.37 94.3 405.37ZM103.99 419.58 96 419.58 96 405.37 104 405.37ZM113.67 419.58 105.67 419.58 105.67 405.37 113.67 405.37ZM123.36 419.58 115.36 419.58 115.36 405.37 123.36 405.37ZM133.05 419.58 125.05 419.58 125.05 405.37 133.05 405.37ZM142.73 419.58 134.73 419.58 134.73 405.37 142.73 405.37ZM152.41 419.58 144.41 419.58 144.41 405.37 152.41 405.37ZM162.09 419.58 154.09 419.58 154.09 405.37 162.09 405.37Z" fill="#6C63FF" opacity="0.1" transform="translate(-47.24 -58.63)"/><path d="M65.24 451.7 65.24 468 162.57 468 162.57 451.7ZM74.94 466.94 67 466.94 67 452.72 75 452.72ZM84.63 466.94 76.63 466.94 76.63 452.72 84.63 452.72ZM94.3 466.94 86.3 466.94 86.3 452.72 94.3 452.72ZM103.99 466.94 96 466.94 96 452.72 104 452.72ZM113.67 466.94 105.67 466.94 105.67 452.72 113.67 452.72ZM123.36 466.94 115.36 466.94 115.36 452.72 123.36 452.72ZM133.05 466.94 125.05 466.94 125.05 452.72 133.05 452.72ZM142.73 466.94 134.73 466.94 134.73 452.72 142.73 452.72ZM152.41 466.94 144.41 466.94 144.41 452.72 152.41 452.72ZM162.09 466.94 154.09 466.94 154.09 452.72 162.09 452.72Z" fill="#6C63FF" opacity="0.1" transform="translate(-47.24 -58.63)"/><path d="M65.24 499.06 65.24 515.31 162.57 515.31 162.57 499.06ZM74.94 514.3 67 514.3 67 500.07 75 500.07ZM84.63 514.3 76.63 514.3 76.63 500.07 84.63 500.07ZM94.3 514.3 86.3 514.3 86.3 500.07 94.3 500.07ZM103.99 514.3 96 514.3 96 500.07 104 500.07ZM113.67 514.3 105.67 514.3 105.67 500.07 113.67 500.07ZM123.36 514.3 115.36 514.3 115.36 500.07 123.36 500.07ZM133.05 514.3 125.05 514.3 125.05 500.07 133.05 500.07ZM142.73 514.3 134.73 514.3 134.73 500.07 142.73 500.07ZM152.41 514.3 144.41 514.3 144.41 500.07 152.41 500.07ZM162.09 514.3 154.09 514.3 154.09 500.07 162.09 500.07Z" fill="#6C63FF" opacity="0.1" transform="translate(-47.24 -58.63)"/><path d="M65.66 546.41C66.05 547.94 66.49 549.47 66.95 550.98L66.95 547.43 74.95 547.43 74.95 561.65 70.67 561.65C70.8 561.98 70.93 562.34 71.06 562.65L162.57 562.65 162.57 546.41ZM84.66 561.65 76.66 561.65 76.66 547.43 84.66 547.43ZM94.33 561.65 86.33 561.65 86.33 547.43 94.33 547.43ZM104.02 561.65 96 561.65 96 547.43 104 547.43ZM113.7 561.65 105.7 561.65 105.7 547.43 113.7 547.43ZM123.39 561.65 115.39 561.65 115.39 547.43 123.39 547.43ZM133.08 561.65 125.08 561.65 125.08 547.43 133.08 547.43ZM142.76 561.65 134.76 561.65 134.76 547.43 142.76 547.43ZM152.44 561.65 144.44 561.65 144.44 547.43 152.44 547.43ZM162.12 561.65 154.12 561.65 154.12 547.43 162.12 547.43Z" fill="#6C63FF" opacity="0.1" transform="translate(-47.24 -58.63)"/><path d="M88.26 593.77C88.51 594.09 88.75 594.45 89.01 594.77L94.3 594.77 94.3 601.6C94.87 602.28 95.43 602.96 96.01 603.6L96.01 594.73 104.01 594.73 104.01 609 100.77 609C101.09 609.33 101.4 609.68 101.77 610L162.6 610 162.6 593.77ZM113.67 609 105.67 609 105.67 594.79 113.67 594.79ZM123.36 609 115.36 609 115.36 594.79 123.36 594.79ZM133.05 609 125.05 609 125.05 594.79 133.05 594.79ZM142.73 609 134.73 609 134.73 594.79 142.73 594.79ZM152.41 609 144.41 609 144.41 594.79 152.41 594.79ZM162.09 609 154.09 609 154.09 594.79 162.09 594.79Z" fill="#6C63FF" opacity="0.1" transform="translate(-47.24 -58.63)"/><path d="M141.65 641.12C142.56 641.64 143.49 642.12 144.43 642.64L144.43 642.14 152.43 642.14 152.43 646.64 154.13 647.43 154.13 642.14 162.13 642.14 162.13 650.79C162.283 650.866 162.444 650.927 162.61 650.97L162.61 641.12Z" fill="#6C63FF" opacity="0.1" transform="translate(-47.24 -58.63)"/><path d="M801.72 392.55 801.72 392.55 801.78 392.55ZM740.12 687.69 740.12 687.69 741.12 687.69ZM675.85 537.52C676.04 538.16 676.2 538.8 676.38 539.43L676.38 539.43C676.22 538.8 676.05 538.16 675.85 537.52ZM801.72 392.52 801.72 392.52 801.78 392.52ZM197.72 242.78 197.72 247.05 242.39 247.05 242.39 242.78ZM740.12 687.69 740.12 687.69 741.12 687.69ZM675.85 537.52C676.04 538.16 676.2 538.8 676.38 539.43L676.38 539.43C676.22 538.8 676.05 538.16 675.85 537.52ZM801.72 392.52 801.72 392.52 801.78 392.52ZM740.12 687.66 740.12 687.66 741.12 687.66ZM675.85 537.52C676.04 538.16 676.2 538.8 676.38 539.43L676.38 539.43C676.22 538.8 676.05 538.16 675.85 537.52Z" fill="#6C63FF" opacity="0.1" transform="translate(-47.24 -58.63)"/><path d="M508.84 438.3C508.84 438.3 504.9 437.75 504.9 432.01 504.9 426.27 502.08 415.55 502.08 415.55L502.08 415.55C502.08 415.5 499.64 396.88 496.27 393.92 492.9 390.96 488.57 373.58 488.57 373.58 488.57 373.58 487.83 364.15 486.32 362.12 484.81 360.09 482.77 355.12 479.76 348.03 476.75 340.94 464.2 336.03 464.2 336.03 464.2 336.03 441.51 322.87 435.08 318.58L435.08 318.58C434.496 318.228 433.949 317.815 433.45 317.35 432.33 315.88 427.45 315.85 427.45 315.85 426.94 312.63 426.45 308.93 426.29 305.58 426.29 305.22 426.29 304.86 426.24 304.5 433.41 300.262 438.81 293.58 441.45 285.68 441.57 285.3 441.67 284.9 441.78 284.52 442.649 284.234 443.357 283.595 443.73 282.76 444.31 281.47 444.32 279.96 445.04 278.76 445.88 277.34 447.48 276.58 448.74 275.51 451.92 272.81 452.74 268.26 452.59 264.12 452.49 260.77 451.95 257.39 452.16 254.06L452.22 253.22C452.28 252.72 452.35 252.22 452.44 251.74 452.93 249.26 454 246.92 454.6 244.46 455.2 242 455.26 239.23 453.86 237.11 451.81 234 447.54 233.38 443.79 233.06 439.54 232.7 435.74 233.17 433.02 229.64 431.747 227.795 430.315 226.065 428.74 224.47 428.18 223.95 422.74 220.63 422.74 220.41 417.431 217.951 411.412 217.489 405.79 219.11 402.97 219.93 400.31 221.27 397.45 221.94 391.28 223.4 384.18 221.82 378.94 225.35 376.02 227.35 374.27 230.53 372.63 233.63 371.297 236.183 369.943 238.733 368.57 241.28 366.36 245.47 364.11 249.73 363.18 254.37 362.984 255.38 362.864 256.402 362.82 257.43L362.82 257.43 362.82 257.48C362.82 257.85 362.82 258.22 362.82 258.59L362.82 259.06C362.82 259.41 362.82 259.75 362.88 260.06 362.94 260.37 362.93 260.47 362.96 260.68 362.99 260.89 363.04 261.36 363.1 261.68 363.16 262 363.28 262.56 363.4 263 363.45 263.19 363.52 263.37 363.58 263.55 363.68 263.89 363.8 264.22 363.93 264.55 364 264.72 364.07 264.9 364.15 265.07 364.3 265.42 364.48 265.76 364.66 266.07 364.74 266.21 364.8 266.34 364.88 266.47 365.159 266.935 365.466 267.383 365.8 267.81 367.94 270.48 371.09 272.18 373.42 274.68 373.42 274.78 373.42 274.88 373.42 274.97 373.42 275.25 373.42 275.52 373.42 275.8 373.671 287.12 379.504 297.584 389 303.75 389 304.13 389.05 304.52 389.07 304.9 389.265 307.868 389.228 310.847 388.96 313.81 388.135 312.839 386.914 312.294 385.64 312.33 385.21 312.309 384.78 312.346 384.36 312.44L384.27 312.37 384.27 312.37 384.27 312.46C382.07 313 379.36 315.29 376.77 321.8 376.77 321.8 368.89 330.68 362.89 330.31 356.89 329.94 341.7 339.55 341.7 339.55 341.7 339.55 326.88 349.17 323.7 358.97 321.923 364.527 319.792 369.965 317.32 375.25L299 413 299 413 295.62 442.95C295.62 442.95 297.49 456.27 297.12 458.3 296.75 460.33 304.81 478.64 304.81 478.64 304.81 478.64 331.44 525.43 342.32 527.83L343.1 527.28C343.565 527.523 344.059 527.708 344.57 527.83L346.81 526.25C346.945 528.011 346.888 529.781 346.64 531.53 345.14 536.15 347.2 566.3 349.82 572.21 352.44 578.12 351.51 655.61 351.51 655.61L351.14 662.45C351.14 662.45 351.14 662.67 351.23 663.05L351.14 664.67 351.41 664.81C351.69 666.98 351.599 669.181 351.14 671.32 350.2 674.32 349.82 682.8 349.82 682.8 349.82 682.8 342.33 730.68 345.88 740.3 349.43 749.92 352.45 760.46 352.45 760.46 352.45 760.46 356.2 772.46 352.63 774.51 349.06 776.56 338.91 780 341 785 342.9 789.62 350.11 802 351.18 803.81L351.09 804.76 349.62 820.69C349.858 822.793 350.428 824.846 351.31 826.77 352.92 830.24 356.05 833.84 362 833.45 363 833.38 364.16 833.26 365.28 833.11 376.17 831.65 389.58 826.79 389.58 826.79 388.884 826.348 388.246 825.82 387.68 825.22L387.68 825.22C386.598 824.172 385.994 822.726 386.01 821.22 386.17 818.32 380.74 804.5 379.39 801.1 379.18 800.61 379.07 800.33 379.07 800.33 379.07 800.33 391.45 787.39 389.39 775.92 389.39 775.92 375.69 767.92 380.2 763.53 384.71 759.14 392.77 746.53 392.77 746.53 392.77 746.53 393.14 699.38 392.77 692.34 392.384 687.454 392.616 682.538 393.46 677.71 393.61 676.98 393.79 676.27 393.98 675.57 400.217 676.501 406.514 676.979 412.82 677 415.12 677 417.46 677 419.82 676.86 419.82 677.527 419.85 678.247 419.91 679.02 420.43 690.7 421.4 711.18 422.19 718.79 423.31 729.7 429.5 759.1 429.5 759.1 429.5 759.1 417.69 766.68 431.56 785.36 431.56 785.36 431.56 792.13 430.64 793.11L430.64 793.11C429.658 796.314 428.866 799.573 428.27 802.87 427.69 806.39 427.45 809.95 428.39 811.8 430.64 816.22 444.14 815.86 444.14 815.86L444.14 815.86 444.47 815.8C449.618 815.268 454.765 816.82 458.76 820.11 463.89 824.23 483.36 822.42 493.9 821.11 498.03 820.59 500.79 820.11 500.79 820.11 500.924 819.642 500.971 819.154 500.93 818.67L500.93 818.67C500.82 816.08 498.79 810.4 485.03 805.33 485.03 805.33 472.09 796.63 472.27 789.05L472 789.05 470.5 789.05C471.59 788.99 472.29 789.05 472.29 789.05 472.29 789.05 467.22 770.55 469.29 769.05 471.36 767.55 465.16 747.05 465.16 747.05 465.16 747.05 461.61 712.65 461.42 710.24 461.428 708.172 461.741 706.116 462.35 704.14L461.42 685.28C461.42 685.28 461.24 679.01 461.42 676.97 461.39 675.199 461.246 673.432 460.99 671.68 460.9 670.98 460.81 670.25 460.71 669.53 465.56 668.3 468.71 667.16 468.71 667.16L468.15 601.51C472.27 593.51 473.03 575.96 473.01 563.51 473.01 555.51 472.65 549.59 472.65 549.59L478.28 540.4C478.28 540.4 479.58 529.4 477.52 526.99 476.61 525.9 477.02 524.77 477.77 523.84 478.16 523.531 478.571 523.25 479 523 479 523 478.94 522.91 478.87 522.78 479.263 522.452 479.681 522.154 480.12 521.89 480.12 521.89 478.12 518.79 479.91 517.48 481.59 518.62 483.09 519.48 484.23 520.18 484.15 520.91 484.07 521.33 484.07 521.33L484.55 520.33C485.65 520.95 486.32 521.33 486.32 521.33 486.32 521.33 495.14 503.76 494.95 501.17 494.76 498.58 500.95 487.67 500.95 487.67 500.95 487.67 501.7 481.94 505.08 479.54 508.46 477.14 507.7 459.75 507.7 459.75 507.7 459.75 508.64 450.69 510.89 446.99 513.14 443.29 508.84 438.3 508.84 438.3ZM340.08 430.59 340.25 434.78C339.25 433.17 338.53 432.01 338.53 432.01Z" fill="url(#ac3cc305-f6db-42f4-bbbd-32121ee27a74-107)" transform="translate(-47.24 -58.63)"/><path d="M486.8 513.74 484.64 522.94C484.64 522.94 467.34 514.11 464.22 502.89 461.1 491.67 469.44 487.41 469.44 487.41L485.56 494.24Z" fill="#FFFFFF" transform="translate(-47.24 -58.63)"/><path d="M486.8 513.74 484.64 522.94C484.64 522.94 467.34 514.11 464.22 502.89 461.1 491.67 469.44 487.41 469.44 487.41L485.56 494.24Z" opacity="0.1" transform="translate(-47.24 -58.63)"/><path d="M389.71 826.85C389.71 826.85 373.71 832.73 362.71 833.47 356.87 833.86 353.8 830.28 352.22 826.83 351.357 824.912 350.8 822.871 350.57 820.78L352 804.93 352.76 796.49 376.13 790.42 379.44 800.54 379.75 801.31C381.08 804.69 386.41 818.44 386.25 821.31 386.237 822.795 386.829 824.221 387.89 825.26 388.427 825.865 389.038 826.4 389.71 826.85Z" fill="#FFFFFF" transform="translate(-47.24 -58.63)"/><path d="M499 818.79C499.04 819.271 498.993 819.756 498.86 820.22 498.86 820.22 464.64 825.93 457.64 820.22 453.649 816.847 448.42 815.315 443.24 816 443.24 816 430 816.36 427.79 812 426.87 810.17 427.11 806.62 427.68 803.12 428.261 799.84 429.036 796.598 430 793.41L430.53 792.99 433.68 790.46 470.56 789.37 470.84 789.37C470.66 796.91 483.36 805.56 483.36 805.56 496.85 810.56 498.84 816.21 499 818.79Z" fill="#FFFFFF" transform="translate(-47.24 -58.63)"/><path d="M499 818.79C499.035 819.272 498.984 819.756 498.85 820.22 498.85 820.22 464.64 825.93 457.64 820.22 453.652 816.85 448.427 815.317 443.25 816 443.25 816 430 816.36 427.8 812 426.88 810.16 427.11 806.62 427.68 803.12 432.78 803.63 440.83 804.9 443.99 807.93 448.77 812.54 456.87 817.14 461.84 817.5 465.73 817.75 489 818.49 499 818.79Z" opacity="0.1" transform="translate(-47.24 -58.63)"/><path d="M389.71 826.85C389.71 826.85 373.71 832.73 362.71 833.47 356.87 833.86 353.8 830.28 352.23 826.82 356.3 828.19 361.95 829.63 364.92 828.31 368.44 826.75 380.92 825.74 387.92 825.31 388.453 825.893 389.054 826.41 389.71 826.85Z" opacity="0.1" transform="translate(-47.24 -58.63)"/><path d="M413.45 353C400.25 347.87 383.27 330.92 387.51 323 388.452 321.001 389.011 318.844 389.16 316.64 389.433 313.648 389.473 310.639 389.28 307.64 388.983 302.729 388.392 297.84 387.51 293 387.51 293 428.72 293.93 426.32 300 425.62 301.78 425.51 304.87 425.7 308.33 425.89 311.79 426.39 315.7 426.91 319.01 427.63 323.55 428.35 327.01 428.35 327.01 428.35 327.01 425.83 330.54 424.35 330.73 422.87 330.92 432.39 360.31 413.45 353Z" fill="#CF6F80" transform="translate(-47.24 -58.63)"/><path d="M379.72 801.31 379.41 801.65C367.09 786.75 352.19 805.32 352.19 805.32L351.97 804.93 352.73 796.49 376.1 790.42 379.41 800.54Z" opacity="0.1" transform="translate(-47.24 -58.63)"/><path d="M470.85 790.42C470.85 790.42 461.85 790.23 457.05 794.47 452.25 798.71 429.05 795.39 430.05 794.47 430.346 794.014 430.525 793.492 430.57 792.95L433.72 790.42 470.6 789.33C470.74 790 470.85 790.42 470.85 790.42Z" opacity="0.1" transform="translate(-47.24 -58.63)"/><path d="M395.05 673.41C394.38 675.067 393.871 676.785 393.53 678.54 392.696 683.346 392.464 688.237 392.84 693.1 393.21 700.1 392.84 747.01 392.84 747.01 392.84 747.01 384.93 759.52 380.52 763.93 376.11 768.34 389.52 776.26 389.52 776.26 391.52 787.66 379.4 800.54 379.4 800.54 367.08 785.64 352.18 804.22 352.18 804.22 352.18 804.22 344.08 790.22 342.06 785.22 340.04 780.22 349.97 776.76 353.46 774.73 356.95 772.7 353.29 760.73 353.29 760.73 353.29 760.73 350.34 750.24 346.84 740.67 343.34 731.1 350.7 683.46 350.7 683.46 350.7 683.46 351.08 675 351.99 672.05 352.449 669.921 352.54 667.73 352.26 665.57 352.2 664.84 352.13 664.23 352.08 663.82 352.03 663.41 351.99 663.22 351.99 663.22L352.13 662.98 357.13 653.66C357.13 653.66 397.45 667.54 395.05 673.41Z" fill="#6C63FF" transform="translate(-47.24 -58.63)"/><path d="M470.85 789.32C470.85 789.32 461.85 789.13 457.05 793.32 452.25 797.51 429.05 794.24 430.05 793.32 431.05 792.4 430.97 785.59 430.97 785.59 417.36 767.01 428.97 759.47 428.97 759.47 428.97 759.47 422.89 730.22 421.79 719.37 421.02 711.79 420.07 691.42 419.56 679.79 419.34 674.79 419.21 671.35 419.21 671.35L430.33 669.11 431.76 668.82 458.58 663.44C458.58 663.44 459.32 668.44 459.82 672.53 460.069 674.276 460.21 676.036 460.24 677.8 460.06 679.8 460.24 686.06 460.24 686.06L461.15 704.83C460.555 706.799 460.249 708.843 460.24 710.9 460.42 713.29 463.91 747.51 463.91 747.51 463.91 747.51 469.98 767.93 467.91 769.4 465.84 770.87 470.85 789.32 470.85 789.32Z" fill="#6C63FF" transform="translate(-47.24 -58.63)"/><path d="M426.32 300C425.62 301.78 425.51 304.87 425.7 308.33 414.436 315.113 400.283 314.849 389.28 307.65 388.983 302.736 388.392 297.844 387.51 293 387.51 293 428.72 293.91 426.32 300Z" opacity="0.1" transform="translate(-47.24 -58.63)"/><path d="M442.25 277.9C442.258 281.504 441.691 285.085 440.57 288.51 434.704 306.476 415.385 316.285 397.419 310.419 383.634 305.918 374.182 293.217 373.83 278.72 373.83 278.44 373.83 278.18 373.83 277.9 373.507 259.004 388.564 243.423 407.46 243.1 426.356 242.777 441.937 257.834 442.26 276.73 442.267 277.12 442.267 277.51 442.26 277.9Z" fill="#CF6F80" transform="translate(-47.24 -58.63)"/><path d="M413.45 353C400.25 347.87 383.27 330.92 387.51 323 388.452 321.001 389.011 318.844 389.16 316.64L407.23 331.49 418.41 340.66 426.91 319.02C427.63 323.56 428.35 327.02 428.35 327.02 428.35 327.02 425.83 330.55 424.35 330.74 422.87 330.93 432.39 360.31 413.45 353Z" opacity="0.1" transform="translate(-47.24 -58.63)"/><path d="M412.94 360 397.85 613.5 378.17 614.79 327.21 467.8 335.57 293.29 337.33 256.42 359.99 275.03 371.18 284.2 379.93 261.93 396.2 276.11 412.94 360Z" fill="#6C63FF"/><path d="M395.05 673.41C394.38 675.067 393.871 676.785 393.53 678.54 379.21 676.329 365.302 671.984 352.27 665.65L352 665.51 352.09 663.9 352.14 663.06 357.14 653.74C357.14 653.74 397.45 667.54 395.05 673.41Z" opacity="0.1" transform="translate(-47.24 -58.63)"/><path d="M430.56 678.58C426.899 679.203 423.207 679.623 419.5 679.84 419.28 674.84 419.15 671.4 419.15 671.4L430.27 669.16Z" opacity="0.1" transform="translate(-47.24 -58.63)"/><path d="M459.76 672.58C452.65 674.43 441.67 676.51 431.84 675.21L431.7 668.87 458.52 663.49C458.52 663.49 459.26 668.44 459.76 672.58Z" opacity="0.1" transform="translate(-47.24 -58.63)"/><path d="M431.66 676.37C390.66 683.37 353.11 663.3 353.11 663.3L353.47 656.5C353.47 656.5 354.4 579.41 351.82 573.5 349.24 567.59 347.23 537.62 348.69 533.02 350.15 528.42 343.36 459.44 343.36 459.44L342.26 431.44 302 415.13 320 377.61C322.431 372.35 324.522 366.938 326.26 361.41 329.39 351.67 343.92 342.1 343.92 342.1 343.92 342.1 358.82 332.54 364.71 332.9 370.6 333.26 378.32 324.44 378.32 324.44 384.02 309.91 389.18 316.49 389.18 316.49 389.18 317.18 389.18 316.49 388.9 318.64 386.9 334.59 421.24 384.99 421.73 385.88L421.73 385.88 425 465.54 428.31 566.35Z" opacity="0.1" transform="translate(-47.24 -58.63)"/><path d="M430.56 676.37C389.56 683.37 352 663.3 352 663.3L352.37 656.5C352.37 656.5 353.3 579.41 350.71 573.5 348.12 567.59 346.12 537.62 347.59 533.02 349.06 528.42 342.26 459.44 342.26 459.44L341.15 431.44 300.87 415.07 318.87 377.55C321.296 372.287 323.387 366.876 325.13 361.35 328.25 351.61 342.79 342.04 342.79 342.04 342.79 342.04 357.69 332.48 363.57 332.84 369.45 333.2 377.18 324.38 377.18 324.38 382.89 309.85 389.18 316.43 389.18 316.43 389.18 317.12 388.58 317.43 388.9 318.58 393.3 334.05 420.14 384.93 420.63 385.82L420.63 385.82 423.94 465.48 427.25 566.29Z" fill="#FFFFFF" transform="translate(-47.24 -58.63)"/><path d="M419.51 388.09C415.1 386.25 391.74 359.58 391.74 359.58L391.74 353.51C390.89 351.51 385.84 352.73 381.74 354.13L383.5 317.26 385.5 318.92C389.88 334.38 419 387.2 419.51 388.09Z" opacity="0.1" transform="translate(-47.24 -58.63)"/><path d="M420.62 385.88C416.2 384.04 392.84 357.37 392.84 357.37L392.84 351.3C391.99 349.3 386.94 350.52 382.84 351.92L384.61 315.05 386.61 316.71C391 332.17 420.13 385 420.62 385.88Z" fill="#FFFFFF" transform="translate(-47.24 -58.63)"/><path d="M353.11 518.89C353.66 518.89 381.62 515.95 381.62 515.95 381.62 515.95 398.55 549.24 397.44 557.34 396.33 565.44 394.32 572.61 387.51 571.34 380.7 570.07 350.86 572.34 350.86 572.34Z" opacity="0.1" transform="translate(-47.24 -58.63)"/><path d="M352 516.68C352.55 516.68 380.51 513.74 380.51 513.74 380.51 513.74 397.43 547.04 396.33 555.13 395.23 563.22 393.2 570.4 386.4 569.13 379.6 567.86 349.75 570.13 349.75 570.13Z" fill="#FFFFFF" transform="translate(-47.24 -58.63)"/><path d="M373.07 501.05C373.07 501.05 398.73 514.84 399.28 519.05 399.83 523.26 386.22 517.21 383.28 516.48 381.345 516.014 379.375 515.706 377.39 515.56L357.78 516.09Z" fill="#CF6F80" transform="translate(-47.24 -58.63)"/><circle cx="365.11" cy="328.48" r="2.7" opacity="0.1"/><circle cx="365.11" cy="327.38" r="2.7" fill="#3F3D56"/><circle cx="370.08" cy="445.36" r="2.7" opacity="0.1"/><circle cx="370.08" cy="444.25" r="2.7" fill="#3F3D56"/><circle cx="367.8" cy="386.92" r="2.7" opacity="0.1"/><circle cx="367.8" cy="385.82" r="2.7" fill="#3F3D56"/><path d="M477.28 515C477.28 515 479.12 517.76 477.28 519.05 475.44 520.34 477.46 523.46 477.46 523.46 477.46 523.46 472.87 526.15 474.89 528.57 476.91 530.99 475.63 541.92 475.63 541.92L470.11 551.06C470.11 551.06 470.44 556.95 470.46 564.91 470.46 577.33 469.73 594.79 465.69 602.75L466.25 668.06C466.25 668.06 446.92 675.12 430.74 672.97L428.34 568.17C428.34 568.17 431.84 508.74 433.13 497.34 433.885 491.422 434.192 485.455 434.05 479.49 434.05 479.49 433.5 461.65 431.65 453.37 431.65 453.37 429.65 417.5 429.45 407.57 429.36 402.82 429.61 388.96 429.89 375.78 430.2 361.37 430.55 347.78 430.55 347.78L426.9 318.9C426.9 318.9 430.55 318.53 431.65 320 432.143 320.46 432.678 320.872 433.25 321.23L433.25 321.23C439.55 325.49 461.81 338.59 461.81 338.59 461.81 338.59 474.13 343.49 477.08 350.51 480.03 357.53 482.08 362.51 483.51 364.51 484.94 366.51 485.72 375.91 485.72 375.91 485.72 375.91 489.96 393.21 493.27 396.14 496.58 399.07 499 417.71 499 417.71L469.75 440.71C469.75 440.71 467.18 478.97 466.63 480.45 466.08 481.93 477.28 515 477.28 515Z" fill="#FFFFFF" transform="translate(-47.24 -58.63)"/><path d="M478.39 515C478.39 515 480.22 517.76 478.39 519.05 476.56 520.34 478.56 523.46 478.56 523.46 478.56 523.46 474 526.18 476 528.6 478 531.02 476.74 541.95 476.74 541.95L471.22 551.09C471.22 551.09 471.55 556.98 471.58 564.94 471.58 577.36 470.85 594.82 466.81 602.78L467.36 668.09C467.36 668.09 448 675.15 431.84 673L429.45 568.2C429.45 568.2 432.95 508.77 434.24 497.37 434.996 491.452 435.3 485.484 435.15 479.52 435.15 479.52 434.6 461.68 432.76 453.4 432.76 453.4 430.76 417.53 430.55 407.6 430.46 402.85 430.72 388.99 430.99 375.81 431.3 361.4 431.65 347.81 431.65 347.81L426.83 318.54C426.83 318.54 431.65 318.54 432.76 320.03 433.248 320.496 433.784 320.908 434.36 321.26L434.36 321.26C440.66 325.52 462.93 338.62 462.93 338.62 462.93 338.62 475.24 343.52 478.19 350.54 481.14 357.56 483.19 362.54 484.63 364.54 486.07 366.54 486.83 375.94 486.83 375.94 486.83 375.94 491.07 393.24 494.38 396.17 497.69 399.1 500.08 417.7 500.08 417.7L470.83 440.7C470.83 440.7 468.26 478.96 467.7 480.44 467.14 481.92 478.39 515 478.39 515Z" fill="#FFFFFF" transform="translate(-47.24 -58.63)"/><path d="M443.36 356.3 446 364 432.1 378C432.41 363.6 432.76 350 432.76 350L427.94 320.73C427.94 320.73 432.76 320.73 433.87 322.22 434.357 322.684 434.893 323.094 435.47 323.44L435.47 323.44 447.29 357.54Z" opacity="0.1" transform="translate(-47.24 -58.63)"/><path d="M442.25 354.09 444.9 361.79 431 375.79C431.31 361.38 431.66 347.79 431.66 347.79L426.83 318.52C426.83 318.52 431.66 318.52 432.76 320.01 433.25 320.473 433.787 320.885 434.36 321.24L434.36 321.24 446.19 355.33Z" fill="#FFFFFF" transform="translate(-47.24 -58.63)"/><path d="M442.25 277.9C442.258 281.504 441.691 285.085 440.57 288.51 440.188 288.57 439.799 288.472 439.49 288.24 439.23 279.24 434.8 270.79 429.35 263.6 427.82 261.429 425.965 259.507 423.85 257.9 421.712 256.294 419.052 255.542 416.39 255.79 413.39 256.2 410.74 258.24 407.71 258.5 403.71 258.83 400.13 256.06 396.16 255.92 392.895 255.951 389.802 257.387 387.67 259.86 385.584 262.327 384.035 265.202 383.12 268.3 381.548 272.998 380.691 277.907 380.58 282.86 380.53 285.66 380.26 289.17 377.66 290.19 378.056 286.027 376.688 281.888 373.89 278.78L373.83 278.72C373.83 278.44 373.83 278.18 373.83 277.9 373.507 259.004 388.564 243.423 407.46 243.1 426.356 242.777 441.937 257.834 442.26 276.73 442.267 277.12 442.267 277.51 442.26 277.9Z" opacity="0.1" transform="translate(-47.24 -58.63)"/><path d="M422.21 223.57C417.014 221.126 411.103 220.663 405.59 222.27 402.82 223.09 400.21 224.42 397.4 225.09 391.4 226.54 384.4 224.97 379.25 228.48 376.39 230.48 374.67 233.64 373.07 236.71L369.07 244.33C366.89 248.5 364.69 252.74 363.78 257.33 362.87 261.92 363.42 267.06 366.33 270.75 368.45 273.44 371.58 275.13 373.88 277.66 376.665 280.771 378.028 284.902 377.64 289.06 380.25 288.06 380.5 284.54 380.56 281.74 380.671 276.787 381.528 271.878 383.1 267.18 384.013 264.081 385.562 261.206 387.65 258.74 389.783 256.269 392.876 254.834 396.14 254.8 400.14 254.94 403.73 257.7 407.69 257.37 410.69 257.12 413.35 255.07 416.37 254.67 419.033 254.418 421.694 255.171 423.83 256.78 425.944 258.384 427.796 260.307 429.32 262.48 434.78 269.67 439.21 278.1 439.47 287.12 440.6 287.95 442.23 286.87 442.79 285.59 443.35 284.31 443.37 282.81 444.08 281.59 444.9 280.18 446.47 279.43 447.7 278.37 450.82 275.68 451.6 271.15 451.48 267.04 451.36 262.93 450.56 258.76 451.34 254.72 451.81 252.24 452.87 249.92 453.45 247.47 454.03 245.02 454.1 242.27 452.73 240.16 450.73 237.06 446.52 236.45 442.85 236.16 438.68 235.8 434.95 236.26 432.29 232.75 431.041 230.918 429.636 229.199 428.09 227.61 427.56 227.09 422.21 223.79 422.21 223.57Z" fill="#512E4E" transform="translate(-47.24 -58.63)"/><path d="M313.52 434.45 303.07 415.13 299.76 444.94C299.76 444.94 301.6 458.18 301.23 460.21 300.86 462.24 308.77 480.44 308.77 480.44 308.77 480.44 334.9 526.98 345.57 529.38L381.62 503.62 372.06 491.48C372.06 491.48 368.75 490.19 367.92 491.48 367.92 491.48 350.17 460.94 348.33 458.73 346.49 456.52 346.85 452.11 346.85 452.11 346.85 452.11 344.09 449.17 345.01 446.41 345.93 443.65 339.68 434.08 339.68 434.08L345.38 428.75Z" opacity="0.1" transform="translate(-47.24 -58.63)"/><path d="M303.62 412.93 300.86 415.13 297.55 444.94C297.55 444.94 299.39 458.18 299.02 460.21 298.65 462.24 306.57 480.44 306.57 480.44 306.57 480.44 332.69 526.98 343.36 529.38L379.42 503.62 369.85 491.48C369.85 491.48 366.54 490.19 365.71 491.48 365.71 491.48 347.96 460.94 346.12 458.73 344.28 456.52 344.65 452.11 344.65 452.11 344.65 452.11 341.89 449.17 342.81 446.41 343.73 443.65 337.47 434.08 337.47 434.08L343.17 428.75Z" fill="#FFFFFF" transform="translate(-47.24 -58.63)"/><path d="M474.89 529.71C476.89 532.14 475.63 543.05 475.63 543.05L470.11 552.19C470.11 552.19 470.44 558.09 470.46 566.04L461.18 568.94C458.275 569.847 455.185 568.228 454.278 565.323 454.095 564.737 454.011 564.124 454.03 563.51L455.63 511.9 477.28 520.18C475.44 521.46 477.46 524.6 477.46 524.6 477.46 524.6 472.87 527.28 474.89 529.71Z" opacity="0.1" transform="translate(-47.24 -58.63)"/><path d="M476 528.6C478 531.03 476.74 541.95 476.74 541.95L471.22 551.09C471.22 551.09 471.55 556.98 471.58 564.94L462.13 567.89C459.282 568.775 456.256 567.184 455.371 564.336 455.193 563.765 455.112 563.168 455.13 562.57L456.74 510.8 478.4 519.08C476.55 520.36 478.57 523.49 478.57 523.49 478.57 523.49 474 526.18 476 528.6Z" fill="#FFFFFF" transform="translate(-47.24 -58.63)"/><path d="M483.17 504C483.17 504 481.7 513.39 478.02 513.94 474.34 514.49 472.69 529.13 469.02 528.61 465.35 528.09 467.78 515 467.91 512.46 468.04 509.92 463.91 499.4 467 497.01 470.09 494.62 479.87 497.01 479.87 497.01Z" fill="#CF6F80" transform="translate(-47.24 -58.63)"/><path d="M491 431.69 497.94 417.69C497.94 417.69 500.7 428.36 500.7 434.06 500.7 439.76 504.56 440.32 504.56 440.32 504.56 440.32 508.79 445.32 506.56 448.96 504.33 452.6 503.43 461.66 503.43 461.66 503.43 461.66 504.16 478.95 500.85 481.34 497.54 483.73 496.85 489.44 496.85 489.44 496.85 489.44 490.77 500.29 490.96 502.87 491.15 505.45 482.5 522.92 482.5 522.92 482.5 522.92 486.73 501.21 462.08 491.83 462.08 491.83 461.89 484.46 463.73 482.44 465.57 480.42 468.44 479.5 466.64 469.29 464.84 459.08 466.12 446.88 466.12 444.43 466.12 441.98 471.64 426.7 471.64 426.7Z" opacity="0.1" transform="translate(-47.24 -58.63)"/><path d="M494 415.69 500.06 417.69C500.06 417.69 502.83 428.36 502.83 434.06 502.83 439.76 506.69 440.32 506.69 440.32 506.69 440.32 510.92 445.32 508.69 448.96 506.46 452.6 505.57 461.66 505.57 461.66 505.57 461.66 506.3 478.95 502.99 481.34 499.68 483.73 498.94 489.44 498.94 489.44 498.94 489.44 492.87 500.29 493.06 502.87 493.25 505.45 484.59 522.92 484.59 522.92 484.59 522.92 488.83 501.21 464.17 491.83 464.17 491.83 463.99 484.46 465.83 482.44 467.67 480.42 470.54 479.5 468.74 469.29 466.94 459.08 468.22 446.88 468.22 444.43 468.22 441.98 473.74 426.7 473.74 426.7Z" fill="#FFFFFF" transform="translate(-47.24 -58.63)"/><path d="M360.15 778.56C360.15 778.56 369.81 772.49 376.15 776.9 382.49 781.31 360.15 778.56 360.15 778.56Z" opacity="0.1" transform="translate(-47.24 -58.63)"/><path d="M435.21 759.79C435.21 759.79 443.76 758.69 450.94 766.42 458.12 774.15 435.21 759.79 435.21 759.79Z" opacity="0.1" transform="translate(-47.24 -58.63)"/><g opacity="0.1"><path d="M447.72 276.18C446.49 277.24 444.91 278 444.09 279.41 443.39 280.62 443.37 282.11 442.81 283.41 442.25 284.71 440.62 285.77 439.49 284.95 439.23 275.95 434.79 267.5 429.34 260.3 427.816 258.127 425.964 256.204 423.85 254.6 421.71 252.991 419.046 252.238 416.38 252.49 413.38 252.9 410.74 254.94 407.71 255.19 403.71 255.53 400.12 252.76 396.15 252.62 392.886 252.652 389.795 254.092 387.67 256.57 385.582 259.032 384.033 261.904 383.12 265 381.549 269.699 380.692 274.607 380.58 279.56 380.52 282.35 380.26 285.83 377.68 286.87 377.74 287.609 377.74 288.351 377.68 289.09 380.28 288.09 380.54 284.57 380.6 281.77 380.711 276.817 381.568 271.908 383.14 267.21 384.053 264.111 385.602 261.236 387.69 258.77 389.819 256.299 392.909 254.864 396.17 254.83 400.17 254.97 403.77 257.73 407.73 257.4 410.73 257.15 413.39 255.1 416.4 254.7 419.066 254.448 421.73 255.201 423.87 256.81 425.984 258.414 427.836 260.337 429.36 262.51 434.81 269.7 439.25 278.13 439.51 287.15 440.64 287.98 442.27 286.9 442.83 285.62 443.39 284.34 443.41 282.84 444.11 281.62 444.93 280.21 446.51 279.46 447.74 278.4 450.86 275.71 451.64 271.18 451.52 267.07 451.52 266.94 451.52 266.81 451.52 266.69 451.33 270.25 450.38 273.88 447.72 276.18Z" transform="translate(-47.24 -58.63)"/><path d="M373.9 275.47C371.6 272.94 368.46 271.25 366.35 268.57 364.573 266.198 363.559 263.342 363.44 260.38 363.125 264.081 364.159 267.771 366.35 270.77 368.46 273.46 371.6 275.15 373.9 277.68 376.108 280.155 377.434 283.292 377.67 286.6 377.979 282.532 376.618 278.513 373.9 275.47Z" transform="translate(-47.24 -58.63)"/><path d="M453.47 245.28C452.88 247.73 451.83 250.06 451.35 252.53 451.066 254.18 450.962 255.857 451.04 257.53 451.073 256.577 451.177 255.628 451.35 254.69 451.83 252.21 452.88 249.89 453.47 247.44 453.814 246.089 453.925 244.689 453.8 243.3 453.738 243.967 453.628 244.629 453.47 245.28Z" transform="translate(-47.24 -58.63)"/></g><ellipse cx="132.73" cy="744.94" rx="97.44" ry="15.65" fill="#6C63FF" opacity="0.1"/><rect x="129.6" y="445.14" width="6.27" height="141.17" fill="#535461"/><path d="M222.51 644.51 222.12 650.87 221.56 659.87 221.33 663.61 220.78 672.61 220.54 676.35 219.98 685.35 213.66 787.42C213.09 796.535 205.533 803.637 196.4 803.64L163.54 803.64C154.409 803.636 146.855 796.533 146.29 787.42L140 685.28 139.44 676.28 139.21 672.54 138.65 663.54 138.42 659.8 137.86 650.8 137.46 644.44C137.178 639.477 140.973 635.226 145.936 634.944 146.11 634.935 146.285 634.93 146.46 634.93L213.67 634.93C218.607 634.973 222.575 639.009 222.533 643.947 222.531 644.135 222.523 644.323 222.51 644.51Z" fill="#3F3D56" transform="translate(-47.24 -58.63)"/><path d="M174.88 592.24 174.32 601.21 91.14 601.21 90.58 592.24 174.88 592.24Z" fill="#9D9CB5"/><path d="M174.09 604.95 173.54 613.93 91.93 613.93 91.37 604.95 174.09 604.95Z" fill="#9D9CB5"/><path d="M173.3 617.68 172.75 626.65 92.72 626.65 92.16 617.68 173.3 617.68Z" fill="#9D9CB5"/><path d="M128.25 556.68C164.76 583.1 180 624.42 180 624.42 180 624.42 136 622.91 99.48 596.49 62.96 570.07 47.75 528.76 47.75 528.76 47.75 528.76 91.73 530.26 128.25 556.68Z" fill="#6C63FF" transform="translate(-47.24 -58.63)"/><path d="M47.72 528.76C47.72 528.76 93.4 554.11 108.05 575.1 122.7 596.09 180 624.42 180 624.42" stroke="#535461" stroke-width="2" stroke-miterlimit="10" fill="none" transform="translate(-47.24 -58.63)"/><path d="M151.82 503.46C171.69 517.83 180 540.32 180 540.32 180 540.32 156.05 539.5 136.17 525.13 116.29 510.76 108 488.26 108 488.26 108 488.26 131.94 489.08 151.82 503.46Z" fill="#6C63FF" transform="translate(-47.24 -58.63)"/><path d="M108 488.26C108 488.26 132.86 502.06 140.83 513.48 148.8 524.9 180 540.32 180 540.32" stroke="#535461" stroke-width="2" stroke-miterlimit="10" fill="none" transform="translate(-47.24 -58.63)"/><path d="M208.85 539.18C186.02 564.27 181.19 597.06 181.19 597.06 181.19 597.06 213.38 589.16 236.19 564.06 259 538.96 263.85 506.18 263.85 506.18 263.85 506.18 231.68 514.09 208.85 539.18Z" fill="#6C63FF" transform="translate(-47.24 -58.63)"/><path d="M263.87 506.19C263.87 506.19 234.13 531.91 226.57 549.63 219.01 567.35 181.19 597.06 181.19 597.06" stroke="#535461" stroke-width="2" stroke-miterlimit="10" fill="none" transform="translate(-47.24 -58.63)"/><path d="M1046.91 530.35C1046.91 530.35 1030.4 448.21 1036.72 437.99 1036.72 437.99 1036.95 428.49 1036.57 416.38 1036.57 415.92 1036.57 415.46 1036.57 414.99 1037.68 415.731 1038.84 416.399 1040.04 416.99 1045.86 419.982 1052.55 420.845 1058.94 419.43L1053.94 413.86C1052.74 412.53 1051.49 411.09 1051.23 409.33 1050.97 407.57 1051.69 406 1052.31 404.43 1057.06 392.43 1057.31 377.34 1048.16 368.18 1040.43 360.48 1038.55 350.54 1030.16 343.51 1024.03 338.36 1020.66 330.81 1017.48 323.51 1014.79 317.34 1012.08 311.12 1010.54 304.58 1009.34 299.47 1008.86 294.18 1007.21 289.19 1005.56 284.2 1002.47 279.35 997.64 277.12 995.92 276.33 994.01 275.88 992.44 274.83 990.38 273.44 989.14 271.18 987.65 269.2 980.08 259.2 954.73 265.09 942.73 269.15 939.468 270.172 936.447 271.846 933.85 274.07L933.96 273.89C934.05 273.74 934.16 273.59 934.26 273.44 932.947 274.502 931.812 275.768 930.9 277.19 929.15 279.96 928.42 283.19 926.96 286.19 925.2 289.74 915.41 299.65 919.62 303.64 919.915 303.908 920.253 304.124 920.62 304.28 922.2 304.938 923.941 305.112 925.62 304.78L925.44 305.21C924.002 308.73 923.265 312.497 923.27 316.3 923.27 332.73 936.82 346.05 953.55 346.05 956.695 346.053 959.822 345.571 962.82 344.62 962.89 345 962.95 345.38 963.02 345.76 963.02 345.91 963.07 346.06 963.09 346.21L963.09 346.21 962.56 346.95C962.533 346.904 962.503 346.861 962.47 346.82L946.77 368.76C944.37 370.45 930.55 380.45 929.77 387.95 928.95 396.16 928.13 405.77 928.13 405.77L928.02 407.83C926.631 408.99 924.804 409.484 923.02 409.18 918.12 408.38 918.12 427.18 918.12 427.18 918.12 427.18 914.86 430.18 912.62 427.58 910.38 424.98 904.46 433.79 904.46 433.79L867.36 435.39 867.36 435.39 866.51 435.44 864.51 429.25C864.062 427.891 862.604 427.146 861.24 427.58 861.085 427.631 860.935 427.695 860.79 427.77L860.65 427.85 860.39 428.03 860.26 428.15C860.188 428.215 860.122 428.285 860.06 428.36L859.94 428.5 859.88 428.56 859.88 428.56C859.412 429.207 859.278 430.038 859.52 430.8L861.24 436.11C854.08 437.55 846.76 441.61 852.73 452.79L822.47 447.2 832.26 455.42 882.8 465.85C882.13 467.05 882.57 468.79 884.66 471.24 893.66 481.81 910.06 484.68 916.66 485.42 918.403 489.319 920.58 493.009 923.15 496.42L922.58 506.95C922.58 506.95 905.87 587.21 902.81 591.28 904.355 589.53 905.769 587.668 907.04 585.71 902.19 602.2 895.41 624.77 893.63 628.15 890.77 633.55 888.12 655.4 891.38 656.8 892.38 657.23 895.24 657.02 899.32 656.71L899.32 658.52 899.14 727.11C899.14 727.11 899.96 769.18 897.71 773.19 895.46 777.2 894.86 785.61 894.86 785.61 894.86 785.61 885.86 802.2 878.73 808.87 878.681 808.922 878.628 808.969 878.57 809.01L878.35 807.45C878.35 807.45 869.78 818.27 850.82 817.66 850.82 817.66 839.41 825.08 856.33 825.48 873.25 825.88 894.86 824.88 894.86 824.88 894.86 824.88 909.95 801.88 922.59 804.88L922.59 822.31 926.46 822.31 926.46 804.6C930.087 802.212 932.577 798.443 933.35 794.17 934.024 789.736 932.305 785.275 928.83 782.44 927.279 781.038 926.383 779.051 926.36 776.96L926.22 777.08C926.22 776.73 926.13 776.37 926.09 776 924.98 767 923.59 748.43 928.5 734.69 935.23 715.85 937.27 689.61 932.37 673.99 930.789 668.997 929.49 663.919 928.48 658.78 928.36 658.13 928.25 657.51 928.15 656.93 931.499 657.383 934.816 658.051 938.08 658.93 949.43 662.06 974.26 662.64 995.46 662.47 995.51 663.05 995.57 663.66 995.64 664.27 996.018 668.51 996.808 672.703 998 676.79 1000.66 684.79 1001.88 720.06 1001.88 720.06 1001.88 720.06 1005.31 749.06 1003.44 760.86 1002.44 767.42 1001.44 774.01 1000.87 780.63L1000.87 780.76C1000.87 780.76 995.25 796.76 991.14 805.45 991.04 805.67 990.93 805.89 990.83 806.1 989.734 806.2 988.656 806.438 987.62 806.81 987.62 806.81 982.11 817.81 976.62 819.63 971.13 821.45 972.95 827.44 985.38 825.24 997.81 823.04 1016.58 821.24 1016.58 821.24L1017.39 810.02 1021.21 805.24 1020.21 816.43 1024.28 815.63 1023.74 802.02 1029.99 794.2C1029.99 794.2 1037.54 787.48 1026.32 774.26L1026.32 774.55C1026.2 774.36 1026.09 774.16 1025.96 773.97L1025.96 773.91C1024.1 771.03 1022.62 765.66 1025.33 756.13 1030.23 738.91 1033.08 723.28 1033.08 723.28 1033.08 723.28 1044.02 681.41 1030.87 661.6L1031.45 661.6C1030.1 658.812 1029.15 655.851 1028.62 652.8 1028.55 652.44 1028.49 652.07 1028.44 651.69 1038.17 651.13 1047.72 649.37 1055.51 645.57 1055.48 645.53 1050.79 546.17 1046.91 530.35ZM923.38 461.05 923.38 461.25 921.38 461.35ZM916.52 462C916.191 462.073 915.883 462.22 915.62 462.43 914.76 463.647 914.22 465.06 914.05 466.54L910.93 465.84C910.93 465.84 908.74 465.37 905.59 464.84L904.1 463.34C908.2 463 912.46 462.5 916.52 462Z" fill="url(#ad14f186-b27f-416c-b629-0bafa2f1236e-108)" transform="translate(-47.24 -58.63)"/><path d="M972.51 743.53 971.32 757.7 975.31 756.9 974.71 741.53 972.51 743.53Z" fill="#1D2366"/><path d="M928.72 734.88C923.91 748.58 925.27 767.07 926.35 776.05 926.75 779.37 927.12 781.39 927.12 781.39 927.12 781.39 919.93 797.77 919.33 798.39 918.73 799.01 898.17 811.56 898.17 811.56L883.8 819.95C883.8 819.95 869.22 813.56 876.21 811.36 877.638 810.787 878.925 809.91 879.98 808.79 886.98 802.14 895.77 785.61 895.77 785.61 895.77 785.61 896.37 777.22 898.57 773.23 900.77 769.24 899.97 727.31 899.97 727.31L900.14 658.96 900.14 650.05 927.49 650.25C927.662 653.275 928.057 656.283 928.67 659.25 929.652 664.371 930.924 669.433 932.48 674.41 937.3 690 935.3 716.11 928.72 734.88Z" fill="#FFB0B1" transform="translate(-47.24 -58.63)"/><path d="M927.12 781.39C927.12 781.39 919.93 797.77 919.33 798.39 918.73 799.01 898.17 811.56 898.17 811.56L883.8 819.95C883.8 819.95 869.22 813.56 876.21 811.36 877.638 810.787 878.925 809.91 879.98 808.79L880.6 813.16 885.39 812.96 926.39 776.07C926.75 779.37 927.12 781.39 927.12 781.39Z" opacity="0.1" transform="translate(-47.24 -58.63)"/><path d="M926.62 777 885.39 814.14 880.6 814.34 879.6 807.34C879.6 807.34 871.22 818.12 852.6 817.52 852.6 817.52 841.42 824.91 857.99 825.31 874.56 825.71 895.72 824.71 895.72 824.71 895.72 824.71 910.5 801.71 922.87 804.71L922.87 822.08 926.67 822.08 926.67 804.55C930.24 802.147 932.674 798.39 933.41 794.15 934.079 789.754 932.408 785.327 929 782.47 927.487 781.052 926.626 779.073 926.62 777Z" fill="#1D2366" transform="translate(-47.24 -58.63)"/><path d="M1023.55 756.24C1020.89 765.74 1022.34 771.09 1024.16 773.96L1024.16 774.02C1026.49 777.564 1028.12 781.527 1028.94 785.69L1029.1 786.59 1010.34 813.94 1000.16 817.94C1000.16 817.94 983.79 812.35 986.78 810.75 987.53 810.36 988.7 808.28 990.04 805.41 994.04 796.76 999.56 780.8 999.56 780.8L999.56 780.67C1000.14 774.08 1001.06 767.51 1002.08 760.97 1003.91 749.2 1000.55 720.31 1000.55 720.31 1000.55 720.31 999.35 685.18 996.75 677.19 995.576 673.128 994.796 668.962 994.42 664.75 993.88 659.75 993.76 655.63 993.76 655.63 993.76 655.63 1004.54 640.63 1024.3 656.83 1025.88 658.122 1027.27 659.63 1028.43 661.31 1042.08 680.73 1031.09 723.51 1031.09 723.51 1031.09 723.51 1028.34 739.07 1023.55 756.24Z" fill="#FFB0B1" transform="translate(-47.24 -58.63)"/><path d="M1029.13 786.59 1010.37 813.94 1000.19 817.94C1000.19 817.94 983.82 812.35 986.81 810.75 987.56 810.36 988.73 808.28 990.07 805.41 997 805.35 1000.59 811.95 1000.59 811.95L1009.37 810.55C1009.37 810.55 1020.95 787.79 1023.55 786.4 1026.15 785.01 1023.95 776.01 1023.95 776.01L1023.95 773.72C1024.02 773.8 1024.08 773.89 1024.16 773.97L1024.16 774.03C1026.49 777.574 1028.12 781.537 1028.94 785.7Z" opacity="0.1" transform="translate(-47.24 -58.63)"/><path d="M1001.19 812.54C1001.19 812.54 996.19 803.36 986.61 806.75 986.61 806.75 981.22 817.75 975.83 819.53 970.44 821.31 972.24 827.31 984.42 825.12 996.6 822.93 1014.96 821.12 1014.96 821.12L1015.76 809.93 1028.14 794.16C1028.14 794.16 1035.52 787.47 1024.54 774.3L1024.54 776.59C1024.54 776.59 1026.74 785.59 1024.14 786.98 1021.54 788.37 1010 811.14 1010 811.14Z" fill="#1D2366" transform="translate(-47.24 -58.63)"/><path d="M927.52 650.23C927.693 653.255 928.087 656.263 928.7 659.23 917.44 657.58 906.99 658.4 900.14 658.94L900.14 650.03Z" opacity="0.1" transform="translate(-47.24 -58.63)"/><path d="M1029.54 663.8C1029.54 663.8 1013.54 664.58 994.46 664.74 993.92 659.74 993.8 655.62 993.8 655.62 993.8 655.62 1004.58 640.62 1024.34 656.82 1025.92 658.112 1027.31 659.62 1028.47 661.3 1028.78 662.153 1029.14 662.987 1029.54 663.8Z" opacity="0.1" transform="translate(-47.24 -58.63)"/><path d="M1029.54 662C1029.54 662 959.46 665.39 938.1 659.4 916.74 653.41 895.57 658.6 892.38 657.21 889.19 655.82 891.78 634.05 894.58 628.66 897.38 623.27 912.74 568.76 912.74 568.76L927.52 491.7 943.09 487.41 944.19 487.1 971.32 479.62 991.2 474.13C991.2 474.13 1030.73 628.46 1027.34 639.84 1026.11 644.198 1025.91 648.782 1026.76 653.23 1027.28 656.268 1028.21 659.219 1029.54 662Z" fill="#1D2366" transform="translate(-47.24 -58.63)"/><path d="M876 439C876 439 862 454 872.6 462.36 883.2 470.72 890.17 463.16 890.17 463.16Z" fill="#C7DAF5" transform="translate(-47.24 -58.63)"/><path d="M876 439C876 439 862 454 872.6 462.36 883.2 470.72 890.17 463.16 890.17 463.16Z" opacity="0.1" transform="translate(-47.24 -58.63)"/><path d="M989.11 340.38C989.11 340.38 987.47 341.94 985 344.24 981.48 347.53 976.27 352.34 971.65 356.37 965.25 361.94 959.97 366.03 961.86 362.54 963.75 359.05 963.39 352.97 962.45 347.28 962.38 346.9 962.32 346.52 962.25 346.15 961.472 341.971 960.44 337.844 959.16 333.79 959.16 333.79 969.5 320.43 975.22 315.16 977.35 313.16 978.84 312.34 978.93 313.73 979.03 315.6 980.43 319.73 982.17 324.11 982.22 324.25 982.27 324.38 982.33 324.52 983.49 327.52 984.8 330.6 985.95 333.26 987.71 337.34 989.11 340.38 989.11 340.38Z" fill="#FFB0B1" transform="translate(-47.24 -58.63)"/><path d="M982.33 324.52C980.351 335.165 972.732 343.887 962.45 347.28 961.655 342.715 960.556 338.208 959.16 333.79 959.16 333.79 978.63 308.64 978.93 313.73 979 315.66 980.52 319.94 982.33 324.52Z" opacity="0.1" transform="translate(-47.24 -58.63)"/><path d="M960.51 354 963.03 350.45C963.03 350.45 964.7 360.63 970.84 356.14 976.98 351.65 977.28 389.93 977.28 389.93L970.69 488.46 923.07 485.61 924.42 438 929.81 414 943.14 379.11 951.07 367.58Z" opacity="0.1" transform="translate(-47.24 -58.63)"/><path d="M977.28 390.54 971.28 479.63 970.65 489.07 944.1 487.48 943.1 487.42 923.1 486.22 924.45 438.6 929.84 414.6 943.17 379.71 951.1 368.18 960.54 354.55 963.06 351.01C963.06 351.01 964.73 361.19 970.87 356.7L971 356.61 971 356.61C977 352.81 977.28 390.54 977.28 390.54Z" fill="#1D2366" transform="translate(-47.24 -58.63)"/><path d="M930.51 406.26C930.51 406.26 928.12 411.26 923.32 410.45 918.52 409.64 918.53 428.45 918.53 428.45 918.53 428.45 915.34 431.45 913.14 428.85 910.94 426.25 905.14 435.04 905.14 435.04L868.8 436.64C868.8 436.64 884.97 444.03 881.8 466.39 881.8 466.39 936.7 462.99 938.5 457.8 940.3 452.61 930.51 406.26 930.51 406.26Z" fill="#FFFFFF" transform="translate(-47.24 -58.63)"/><path d="M930.51 406.26C930.51 406.26 928.12 411.26 923.32 410.45 918.52 409.64 918.53 428.45 918.53 428.45 918.53 428.45 915.34 431.45 913.14 428.85 910.94 426.25 905.14 435.04 905.14 435.04L868.8 436.64C868.8 436.64 884.97 444.03 881.8 466.39 881.8 466.39 936.7 462.99 938.5 457.8 940.3 452.61 930.51 406.26 930.51 406.26Z" opacity="0.03" transform="translate(-47.24 -58.63)"/><path d="M777.66 389.76 787.24 397.94 866.1 414.51 856.32 404.53 777.66 389.76Z" fill="#FFFFFF"/><path d="M960.66 357.15C959.35 359.15 955.6 369.39 952.47 378.33 949.86 385.78 947.68 392.33 947.68 392.33 947.68 392.33 942.59 425.47 939.99 431.46 937.39 437.45 938.8 460.81 938.8 460.81L929.11 518.5C929.11 518.5 924.72 548.25 917.94 566.02 911.25 583.51 903.8 591.71 903.57 591.97 906.57 587.91 922.92 507.97 922.92 507.97L928.32 407.15C928.32 407.15 929.11 397.57 929.91 389.38 930.71 381.19 946.91 370.01 946.91 370.01L962.53 347.8C964.1 349.9 963.05 353.56 960.66 357.15Z" fill="#FFFFFF" transform="translate(-47.24 -58.63)"/><path d="M919.93 486.72C919.93 486.72 896.93 485.72 885.79 472.34 874.65 458.96 911.54 467 911.54 467L921.13 469.2Z" fill="#FFB0B1" transform="translate(-47.24 -58.63)"/><path d="M1027.34 639.85C1026.11 644.208 1025.91 648.792 1026.76 653.24 1001.67 655.02 974.83 648.24 974.83 648.24 969.83 652.84 956.66 659.62 956.66 659.62L949.48 570.62C944.89 558.62 943.09 495.75 943.09 495.75 943.09 495.75 943.5 492.46 944.09 487.53 944.09 487.41 944.09 487.28 944.14 487.16 945.93 473.39 949.48 447.54 951.22 444.05 953.62 439.25 943.84 426.48 943.84 426.48L948.29 388.53 948.83 383.95C958.21 379.76 965.4 366.38 965.4 366.38L970.92 356.71 970.92 356.71C976.92 352.86 977.23 390.59 977.23 390.59L971.23 479.68 991.11 474.19C991.11 474.19 1030.73 628.47 1027.34 639.85Z" opacity="0.1" transform="translate(-47.24 -58.63)"/><path d="M1053.09 646C1025.74 659.58 976.03 647 976.03 647 971.03 651.6 957.86 658.38 957.86 658.38L950.67 569.38C946.09 557.38 944.29 494.51 944.29 494.51 944.29 494.51 950.07 447.6 952.47 442.81 953.17 441.41 952.83 439.33 952 437.09 947.919 426.428 946.419 414.953 947.62 403.6L949.54 387.29 950.07 382.72C959.46 378.52 966.65 365.14 966.65 365.14L971.65 356.38 980.85 340.24 985.21 332.6 985.95 333.27 991.6 338.39C991.6 338.39 994 340.39 997.6 343.39 1005.43 349.99 1018.96 361.61 1025.94 368.72 1032.08 374.98 1034.02 399.33 1034.58 417.66 1034.95 429.73 1034.73 439.19 1034.73 439.19 1028.54 449.38 1044.73 531.19 1044.73 531.19 1048.5 547 1053.09 646 1053.09 646Z" fill="#FFFFFF" transform="translate(-47.24 -58.63)"/><path d="M1000.59 364.94C1000.59 364.94 981.82 400.67 984 414.25 986.18 427.83 992.38 443.2 989.39 446.79 987.307 449.547 984.055 451.171 980.6 451.18 977.6 451.38 969.6 456.97 969.6 457.57 969.6 458.17 962.21 458.17 955.6 460.97 948.99 463.77 939.23 465.36 939.23 465.36 939.23 465.36 920.23 464.76 918.46 466.56 916.69 468.36 914.87 479.13 918.66 487.72 922.45 496.31 926.66 502.72 929.84 503.89 933.02 505.06 953.2 498.3 969.57 496.7 985.94 495.1 1003.71 482.13 1003.71 482.13 1003.71 482.13 1023.28 475.13 1026.71 463.36 1030.14 451.59 1022.52 386.9 1022.52 386.9 1022.52 386.9 1016.76 356.75 1000.59 364.94Z" opacity="0.03" transform="translate(-47.24 -58.63)"/><path d="M998.19 361.94C998.19 361.94 979.42 397.68 981.62 411.25 983.82 424.82 990 440.2 987 443.8 984.925 446.56 981.674 448.186 978.22 448.19 975.22 448.39 967.22 453.98 967.22 454.58 967.22 455.18 959.83 455.18 953.22 457.97 946.61 460.76 936.85 462.36 936.85 462.36 936.85 462.36 917.85 461.76 916.09 463.56 914.33 465.36 912.49 476.14 916.29 484.72 920.09 493.3 924.29 499.72 927.47 500.89 930.65 502.06 950.83 495.3 967.2 493.71 983.57 492.12 1001.34 479.13 1001.34 479.13 1001.34 479.13 1020.9 472.13 1024.29 460.37 1027.68 448.61 1020.1 383.9 1020.1 383.9 1020.1 383.9 1014.36 353.76 998.19 361.94Z" opacity="0.03" transform="translate(-47.24 -58.63)"/><path d="M1000 363.14C1000 363.14 981.23 398.88 983.43 412.45 985.63 426.02 991.81 441.4 988.82 444.99 986.745 447.757 983.489 449.387 980.03 449.39 977.03 449.59 969.03 455.18 969.03 455.77 969.03 456.36 961.65 456.37 955.03 459.17 948.41 461.97 938.66 463.56 938.66 463.56 938.66 463.56 919.66 462.96 917.89 464.76 916.12 466.56 914.3 477.34 918.09 485.92 921.88 494.5 926.09 500.92 929.27 502.09 932.45 503.26 952.63 496.5 969 494.9 985.37 493.3 1003.14 480.33 1003.14 480.33 1003.14 480.33 1022.71 473.33 1026.14 461.56 1029.57 449.79 1022 385.1 1022 385.1 1022 385.1 1016.16 355 1000 363.14Z" fill="#FFFFFF" transform="translate(-47.24 -58.63)"/><path d="M999.59 459C999.59 459 984.59 456 989.81 461 995.03 466 995 470.38 1001.39 470.18 1007.78 469.98 999.59 459 999.59 459Z" opacity="0.1" transform="translate(-47.24 -58.63)"/><path d="M1024.94 566.58C1024.94 566.58 1018.16 571.17 1031.13 581.75 1044.1 592.33 1024.94 566.58 1024.94 566.58Z" opacity="0.1" transform="translate(-47.24 -58.63)"/><path d="M1012 604.31C1012 604.91 1009.6 626.31 1018.58 631.66 1027.56 637.01 1012 604.31 1012 604.31Z" opacity="0.1" transform="translate(-47.24 -58.63)"/><path d="M869.42 436.59C862.18 436.84 846.54 439.05 854.65 454.18 861.82 467.57 873.87 458.62 880.65 451.83 878.996 445.499 874.977 440.045 869.42 436.59Z" fill="#FFB0B1" transform="translate(-47.24 -58.63)"/><path d="M881.39 451 881.39 451Z" fill="#FFB0B1" transform="translate(-47.24 -58.63)"/><path d="M880.74 451.71 881.04 451.4Z" fill="#FFB0B1" transform="translate(-47.24 -58.63)"/><path d="M997.6 344C989.92 349.25 983.48 353.68 982.22 354.6 978.78 357.15 972.22 372.12 967.99 379.76 964.62 385.91 953.67 387.49 949.54 387.88L950.07 383.31C959.46 379.11 966.65 365.73 966.65 365.73L985.21 333.19 991.6 339C991.6 339 994 341 997.6 344Z" opacity="0.1" transform="translate(-47.24 -58.63)"/><path d="M997.6 343.4C989.92 348.65 983.48 353.08 982.22 354.01 978.78 356.55 972.22 371.52 967.99 379.16 964.62 385.31 953.67 386.89 949.54 387.28L950.07 382.71C959.46 378.51 966.65 365.13 966.65 365.13L985.21 332.59 991.6 338.38C991.6 338.38 994 340.36 997.6 343.4Z" fill="#DCE7FF" transform="translate(-47.24 -58.63)"/><path d="M982.82 317.92C982.824 323.923 981.004 329.785 977.6 334.73 968.319 348.228 949.853 351.646 936.355 342.365 922.857 333.084 919.439 314.618 928.72 301.12 938.001 287.623 956.467 284.204 969.965 293.485 978.011 299.018 982.818 308.156 982.82 317.92Z" fill="#FFB0B1" transform="translate(-47.24 -58.63)"/><path d="M1034.58 417.67C1030.52 415.172 1027.21 411.619 1025.01 407.39 1023.34 404.09 1022.23 400.28 1019.38 397.94 1016.81 395.84 1013.38 395.33 1010.18 394.39 999.66 391.28 990.84 381.68 990.51 370.72 990.35 365.56 991.96 360.41 991.23 355.3 990.815 352.408 989.665 349.671 987.89 347.35 987.009 346.24 986.042 345.2 985 344.24 983.6 342.92 982.13 341.64 980.85 340.24 980.044 339.373 979.339 338.417 978.75 337.39 978.274 336.55 977.889 335.661 977.6 334.74 975.6 328.62 977.42 321.36 975.22 315.17L975.1 314.83C974.27 312.63 972.58 310.43 970.23 310.26 967.88 310.09 965.87 312.04 963.63 312.91 958.94 314.73 953.88 311.63 949.97 308.47 946.06 305.31 941.65 301.7 936.68 302.4 933.39 302.87 930.79 305.11 927.76 306.27 927.076 306.535 926.37 306.739 925.65 306.88 931.745 291.681 949.006 284.301 964.205 290.395 975.455 294.906 982.826 305.81 982.82 317.93 982.823 320.01 982.606 322.086 982.17 324.12 982.22 324.26 982.27 324.39 982.33 324.53 983.49 327.53 984.8 330.61 985.95 333.27L991.6 338.39C991.6 338.39 994 340.39 997.6 343.39 1005.43 349.99 1018.96 361.61 1025.94 368.72 1032.08 375 1034 399.34 1034.58 417.67Z" opacity="0.1" transform="translate(-47.24 -58.63)"/><path d="M927.41 288C928.84 285.09 929.55 281.83 931.26 279.07 933.77 275.07 938.15 272.51 942.65 270.96 954.4 266.91 979.23 261.03 986.65 270.96 988.11 272.96 989.32 275.18 991.34 276.56 992.88 277.61 994.74 278.06 996.43 278.85 1001.16 281.07 1004.18 285.91 1005.79 290.85 1007.4 295.79 1007.88 301.09 1009.06 306.18 1010.57 312.71 1013.22 318.9 1015.86 325.05 1018.97 332.31 1022.27 339.84 1028.27 344.97 1036.46 351.97 1038.27 361.88 1045.87 369.56 1054.87 378.68 1054.58 393.73 1049.94 405.68 1049.33 407.25 1048.64 408.89 1048.88 410.56 1049.12 412.23 1050.36 413.75 1051.53 415.08L1056.45 420.63C1044.81 423.44 1031.64 417.36 1026.22 406.69 1024.55 403.39 1023.44 399.59 1020.58 397.24 1018.02 395.14 1014.58 394.64 1011.39 393.7 1000.87 390.58 992.05 380.97 991.72 370.01 991.56 364.86 993.17 359.71 992.44 354.61 992.034 351.699 990.88 348.942 989.09 346.61 986.34 343.02 982.19 340.61 979.95 336.61 976.16 329.92 979.04 321.23 976.31 314.05 975.47 311.85 973.79 309.65 971.44 309.48 969.09 309.31 967.08 311.26 964.83 312.13 960.15 313.95 955.09 310.86 951.18 307.69 947.27 304.52 942.86 300.92 937.88 301.63 934.59 302.09 932 304.33 928.97 305.5 926.73 306.36 922.19 307.13 920.23 305.24 916.09 301.43 925.68 291.56 927.41 288Z" fill="#591D4B" transform="translate(-47.24 -58.63)"/><path d="M1029 403.39C1027.32 400.09 1026.22 396.29 1023.36 393.95 1020.8 391.85 1017.36 391.34 1014.16 390.4 1003.65 387.29 994.83 377.68 994.49 366.72 994.33 361.57 995.94 356.41 995.22 351.31 994.801 348.417 993.648 345.68 991.87 343.36 989.11 339.77 984.96 337.36 982.73 333.36 978.94 326.68 981.82 317.99 979.08 310.8 978.25 308.61 976.56 306.41 974.22 306.23 971.88 306.05 969.85 308.02 967.61 308.89 962.93 310.71 957.86 307.61 953.96 304.45 950.06 301.29 945.63 297.68 940.66 298.38 937.37 298.85 934.77 301.09 931.75 302.25 929.51 303.11 924.96 303.89 923 302 918.88 298 928.47 288.15 930.19 284.61 931.62 281.69 932.33 278.44 934.05 275.68 934.14 275.53 934.24 275.38 934.34 275.23 933.053 276.296 931.943 277.558 931.05 278.97 929.34 281.73 928.63 284.97 927.2 287.9 925.47 291.44 915.88 301.32 920.01 305.29 922.01 307.19 926.51 306.41 928.75 305.55 931.75 304.38 934.37 302.14 937.66 301.68 942.66 300.97 947.06 304.58 950.96 307.74 954.86 310.9 959.96 314 964.62 312.18 966.86 311.31 968.82 309.35 971.22 309.53 973.62 309.71 975.22 311.9 976.09 314.1 978.82 321.28 975.94 329.97 979.73 336.66 981.97 340.59 986.12 343.05 988.87 346.66 990.66 348.992 991.814 351.749 992.22 354.66 992.95 359.76 991.34 364.91 991.5 370.06 991.83 381.06 1000.65 390.63 1011.17 393.75 1014.34 394.69 1017.8 395.19 1020.36 397.29 1023.23 399.64 1024.36 403.44 1026 406.74 1031.42 417.41 1044.59 423.49 1056.23 420.68L1053.91 418.06C1043.82 418.21 1033.61 412.47 1029 403.39Z" opacity="0.1" transform="translate(-47.24 -58.63)"/><path d="M960.06 357.75C958.75 359.75 955 369.99 951.87 378.93 948.94 377.79 946.28 370.52 946.28 370.52L961.9 348.3C963.5 350.5 962.45 354.15 960.06 357.75Z" opacity="0.1" transform="translate(-47.24 -58.63)"/><path d="M960.66 357.15C959.35 359.15 955.6 369.39 952.47 378.33 949.54 377.2 946.88 369.92 946.88 369.92L962.5 347.71C964.1 349.9 963.05 353.56 960.66 357.15Z" fill="#DCE7FF" transform="translate(-47.24 -58.63)"/><path d="M869.84 459.31 861.18 432C860.75 430.659 861.489 429.223 862.83 428.793 862.833 428.792 862.837 428.791 862.84 428.79L862.84 428.79C864.182 428.371 865.61 429.112 866.04 430.45L874.7 457.73 873.84 463.44Z" fill="#BE8B87" transform="translate(-47.24 -58.63)"/><path d="M862 429.6 862 429.6C863.345 429.175 864.78 429.917 865.21 431.26L873.87 458.54 873.22 462.82 873.85 463.48 874.71 457.77 866 430.49C865.57 429.152 864.141 428.411 862.8 428.83L862.8 428.83C862.258 429.006 861.79 429.358 861.47 429.83 861.64 429.739 861.817 429.662 862 429.6Z" fill="#FFFFFF" opacity="0.1" transform="translate(-47.24 -58.63)"/><path d="M822.6 400.68 827.46 399.14 826.75 403.82 826.6 404.85 825.18 403.37 822.6 400.68Z" fill="#EFC8C4"/><path d="M872.42 462C872.505 461.893 872.61 461.805 872.73 461.74 872.874 461.649 873.056 461.649 873.2 461.74 873.268 461.822 873.325 461.913 873.37 462.01 873.504 462.234 873.732 462.384 873.99 462.42L873.84 463.42Z" fill="#727A9C" transform="translate(-47.24 -58.63)"/><path d="M861.13 441.7C861.13 441.7 878.5 441.6 874.41 448.99 870.32 456.38 863.93 457.27 863.93 457.27Z" fill="#FFB0B1" transform="translate(-47.24 -58.63)"/><path d="M753.1 110.05 752.35 110.05C722.51 110.05 696.12 125.84 680.94 149.14 665.76 125.84 639.37 110.05 609.53 110.05L608.78 110.05C562.172 110.494 524.615 148.39 524.59 195 524.59 222.81 536.77 262.27 560.52 294.74 605.77 356.61 680.94 410.74 680.94 410.74 680.94 410.74 756.11 356.62 801.35 294.74 825.11 262.27 837.28 222.81 837.28 195 837.255 148.394 799.704 110.5 753.1 110.05ZM742.37 299.5C735.414 299.474 729.189 295.175 726.7 288.68L708.86 288.68C706.452 288.665 704.319 287.122 703.55 284.84L698.07 268.33 680.73 328.92C680.036 331.316 677.844 332.966 675.35 332.97L675 332.97C672.389 332.844 670.222 330.91 669.8 328.33L651.93 220.85 638.87 284.45C638.254 286.936 636.021 288.682 633.46 288.68L608.33 288.68C605.245 288.811 602.639 286.416 602.509 283.331 602.378 280.247 604.773 277.641 607.857 277.51 608.015 277.503 608.173 277.503 608.33 277.51L629.06 277.51 647.56 192C648.284 188.987 651.313 187.132 654.325 187.856 656.541 188.388 658.215 190.208 658.56 192.46L676.81 302.1 692.35 247.89C693.015 245.545 695.143 243.917 697.58 243.89L697.69 243.89C700.101 243.891 702.238 245.44 702.99 247.73L712.9 277.54 726.48 277.54C729.374 268.748 738.848 263.966 747.64 266.86 756.432 269.754 761.214 279.228 758.32 288.02 756.057 294.894 749.637 299.54 742.4 299.54Z" fill="#6C63FF" transform="translate(-47.24 -58.63)"/></svg>