<svg width="192" height="192" xmlns="http://www.w3.org/2000/svg" xmlns:xlink="http://www.w3.org/1999/xlink" overflow="hidden"><defs><clipPath id="clip0"><rect x="706" y="128" width="192" height="192"/></clipPath></defs><g clip-path="url(#clip0)" transform="translate(-706 -128)"><path d="M794.479 131.297C749.542 134.83 713.077 171.125 709.34 216.046 707.575 237.259 712.949 257.13 723.306 273.543 724.467 275.382 724.689 277.657 723.807 279.644L709.301 312.317C708.068 315.095 710.905 317.932 713.683 316.699L746.356 302.193C748.343 301.31 750.618 301.533 752.457 302.693 768.869 313.051 788.739 318.424 809.952 316.66 854.872 312.925 891.167 276.463 894.703 231.526 899.21 174.239 851.765 126.793 794.479 131.297Z" fill="#E4EAF6"/><path d="M882.174 223.998C882.174 268.273 846.282 304.166 802.006 304.166 757.73 304.166 721.837 268.273 721.837 223.998 721.837 179.722 757.73 143.829 802.006 143.829 846.282 143.829 882.174 179.722 882.174 223.998Z" fill="#00D2FF"/><path d="M811.626 179.107C811.626 184.42 807.319 188.727 802.006 188.727 796.693 188.727 792.386 184.42 792.386 179.107 792.386 173.794 796.693 169.487 802.006 169.487 807.319 169.487 811.626 173.794 811.626 179.107Z" fill="#FFFFFF"/><path d="M802.004 143.828C757.728 143.828 721.835 179.72 721.835 223.996 721.835 268.272 757.728 304.165 802.004 304.165 846.279 304.165 882.172 268.272 882.172 223.996 882.172 179.72 846.279 143.828 802.004 143.828ZM802.004 294.54C763.043 294.54 731.46 262.956 731.46 223.996 731.46 185.036 763.043 153.452 802.004 153.452 840.964 153.452 872.547 185.036 872.547 223.996 872.548 262.956 840.964 294.54 802.004 294.54Z" fill="#18BDF6"/><path d="M796.59 202.753 807.413 202.753 807.413 271.297 796.59 271.297Z" fill="#FFFFFF"/><path d="M869.889 156.114C849.998 136.222 822.426 126.083 794.243 128.3 771.798 130.065 750.524 139.909 734.338 156.02 718.152 172.131 708.21 193.361 706.344 215.796 704.589 236.893 709.576 257.416 720.764 275.147 721.407 276.167 721.518 277.392 721.059 278.424L706.553 311.097C705.482 313.508 705.996 316.272 707.862 318.137 709.728 320.003 712.492 320.517 714.903 319.446L747.575 304.94C748.608 304.481 749.833 304.592 750.852 305.236 766.262 314.96 783.782 320 801.956 320 804.69 320 807.441 319.885 810.2 319.656 832.636 317.79 853.864 307.849 869.976 291.665 886.087 275.48 895.933 254.206 897.699 231.762 899.917 203.58 889.78 176.007 869.889 156.114ZM891.705 231.291C890.052 252.313 880.821 272.249 865.716 287.423 850.61 302.597 830.717 311.917 809.703 313.664 789.917 315.309 770.678 310.636 754.061 300.151 751.342 298.435 748.006 298.172 745.136 299.445L712.464 313.951C712.385 313.986 712.267 314.039 712.114 313.886 711.961 313.734 712.014 313.615 712.049 313.537L726.555 280.864C727.829 277.995 727.565 274.658 725.849 271.939 715.363 255.321 710.69 236.08 712.336 216.295 714.085 195.28 723.405 175.387 738.581 160.282 753.756 145.176 773.691 135.947 794.715 134.294 797.111 134.106 799.497 134.013 801.877 134.013 825.764 134.013 848.682 143.409 865.638 160.367 884.283 179.013 893.785 204.864 891.705 231.291Z"/><path d="M802.004 140.821C756.141 140.821 718.829 178.133 718.829 223.996 718.829 269.859 756.141 307.171 802.004 307.171 847.866 307.171 885.178 269.859 885.178 223.996 885.178 178.133 847.866 140.821 802.004 140.821ZM802.004 301.158C759.456 301.158 724.841 266.543 724.841 223.996 724.841 181.449 759.456 146.834 802.004 146.834 844.551 146.834 879.166 181.449 879.166 223.996 879.166 266.543 844.551 301.158 802.004 301.158Z"/><path d="M814.823 204.559 814.831 204.559C816.491 204.559 817.837 203.213 817.837 201.553 817.837 199.892 816.491 198.546 814.831 198.546L789.173 198.546C787.513 198.546 786.168 199.892 786.168 201.553 786.168 203.213 787.517 204.559 789.177 204.559 791.055 204.559 792.584 206.088 792.584 207.966L792.584 265.688C792.584 267.566 791.055 269.095 789.173 269.095 787.513 269.095 786.168 270.441 786.168 272.101 786.168 273.761 787.517 275.108 789.177 275.108L814.83 275.108C816.491 275.108 817.837 273.762 817.837 272.101 817.837 270.441 816.491 269.095 814.83 269.095L814.822 269.095C812.943 269.095 811.415 267.566 811.415 265.688L811.415 207.966C811.415 206.088 812.944 204.559 814.823 204.559ZM806.04 269.095 797.959 269.095C798.371 268.037 798.597 266.888 798.597 265.687L798.597 207.966C798.597 206.766 798.371 205.616 797.959 204.559L806.04 204.559C805.628 205.616 805.403 206.765 805.403 207.966L805.403 265.688C805.403 266.888 805.628 268.037 806.04 269.095Z"/><path d="M802.004 191.732C808.966 191.732 814.63 186.068 814.63 179.106 814.63 172.143 808.966 166.479 802.004 166.479 795.041 166.479 789.377 172.143 789.377 179.106 789.377 186.068 795.041 191.732 802.004 191.732ZM802.004 172.492C805.65 172.492 808.617 175.459 808.617 179.106 808.617 182.753 805.65 185.72 802.004 185.72 798.357 185.72 795.39 182.753 795.39 179.106 795.39 175.459 798.357 172.492 802.004 172.492Z"/></g></svg>