<svg width="800" height="800" viewBox="-143 145 512 512" xmlns="http://www.w3.org/2000/svg" xmlns:xlink="http://www.w3.org/1999/xlink" id="Layer_1" stroke="#FFFFFF" fill="#FFFFFF" xml:space="preserve" overflow="hidden"><g id="SVGRepo_bgCarrier" stroke-width="0"></g><g id="SVGRepo_tracerCarrier" stroke-linecap="round" stroke-linejoin="round"></g><g id="SVGRepo_iconCarrier"><g><path d="M113 145C-28.4 145-143 259.6-143 401-143 542.4-28.4 657 113 657 254.4 657 369 542.4 369 401 369 259.6 254.4 145 113 145ZM272.8 560.7C252 581.5 227.9 597.8 201 609.1 173.2 620.9 143.6 626.8 113 626.8 82.5 626.8 52.9 620.8 25 609.1-1.9 597.7-26.1 581.4-46.8 560.7-67.6 539.9-83.9 515.8-95.2 488.9-107 461.1-113 431.5-113 401-113 370.5-107 340.9-95.3 313-83.9 286.1-67.6 261.9-46.9 241.2-26 220.4-1.9 204.1 25 192.7 52.9 181 82.5 175 113 175 143.5 175 173.1 181 201 192.7 227.9 204.1 252.1 220.4 272.8 241.1 293.6 261.9 309.9 286 321.2 312.9 333 340.7 338.9 370.3 338.9 400.9 338.9 431.4 332.9 461 321.2 488.9 309.8 515.8 293.5 540 272.8 560.7Z"/><path d="M191.6 273 34.6 273C7.3 273-14.9 295.2-14.9 322.5L-14.9 374.8-14.9 479.6C-14.9 506.9 7.3 529.1 34.6 529.1L191.6 529.1C218.9 529.1 241.1 506.9 241.1 479.6L241.1 374.7 241.1 322.4C241 295.2 218.8 273 191.6 273ZM205.8 302.5 211.5 302.5 211.5 308.1 211.5 345.9 168.2 346 168.1 302.6 205.8 302.5ZM76.5 374.7C84.7 363.4 98 355.9 113 355.9 128 355.9 141.3 363.3 149.5 374.7 154.9 382.1 158 391.2 158 401 158 425.8 137.8 446.1 112.9 446.1 88 446.1 68 425.8 68 401 68 391.2 71.2 382.1 76.5 374.7ZM216.1 479.5C216.1 493 205.1 504 191.6 504L34.6 504C21.1 504 10.1 493 10.1 479.5L10.1 374.7 48.3 374.7C45 382.8 43.1 391.7 43.1 401 43.1 439.6 74.5 471 113.1 471 151.7 471 183.1 439.6 183.1 401 183.1 391.7 181.2 382.8 177.9 374.7L216.1 374.7 216.1 479.5Z"/></g></g></svg>