<svg width="1049" height="240" xmlns="http://www.w3.org/2000/svg" xmlns:xlink="http://www.w3.org/1999/xlink" overflow="hidden"><g transform="translate(-107 -383)"><path d="M266.827 383.722C372.544 408.144 307.513 471.085 280.913 491.169 254.314 511.252 204.467 542.779 107.231 504.224 223.659 489.093 217.624 489.897 248.557 478.907 279.49 467.918 330.322 424.161 266.827 383.722Z" fill="#81A8E7" fill-rule="evenodd"/><path d="M449.549 580.186C342.42 588.672 213.424 594.564 212.01 547.657 210.596 500.751 366.456 443 475 443 358.795 475.778 259.378 536.215 289.07 553.315 318.761 570.415 398.865 578.202 449.549 580.186Z" fill="#94C639" fill-rule="evenodd"/><path d="M891.901 497.781C886.903 497.781 883.154 499.184 880.655 501.989 878.156 504.794 876.906 508.797 876.906 513.999 876.906 519.915 878.156 524.174 880.655 526.775 883.154 529.376 886.342 530.676 890.218 530.676 894.4 530.676 897.715 529.707 900.163 527.769L900.163 499.617C899.448 499.209 898.403 498.801 897.026 498.393 895.649 497.985 893.941 497.781 891.901 497.781ZM674.655 497.781C669.147 497.781 664.914 499.362 661.956 502.524 658.998 505.686 657.519 510.48 657.519 516.906 657.519 523.23 658.896 527.999 661.65 531.212 664.404 534.425 668.382 536.031 673.584 536.031 675.42 536.031 677.077 535.751 678.556 535.19 680.035 534.629 681.182 533.991 681.999 533.277L681.999 499.617C679.958 498.393 677.51 497.781 674.655 497.781ZM585.453 496.404C583.005 496.404 580.888 496.812 579.103 497.628 577.318 498.444 575.865 499.49 574.743 500.765 573.621 502.04 572.779 503.468 572.218 505.049 571.657 506.63 571.326 508.236 571.224 509.868L597.387 505.584C597.081 503.544 595.958 501.504 594.021 499.464 592.083 497.424 589.227 496.404 585.453 496.404ZM822.656 479.421C824.9 479.421 826.914 479.574 828.699 479.88 830.484 480.186 831.989 480.798 833.213 481.716 834.437 482.634 835.38 483.884 836.043 485.465 836.706 487.046 837.037 489.111 837.037 491.661L837.037 553.932C835.916 554.136 834.258 554.417 832.065 554.774 829.872 555.131 827.654 555.309 825.41 555.309 823.166 555.309 821.151 555.156 819.366 554.85 817.581 554.544 816.077 553.932 814.853 553.014 813.629 552.096 812.685 550.847 812.022 549.266 811.359 547.685 811.028 545.619 811.028 543.069L811.028 480.798C812.15 480.594 813.807 480.314 816 479.957 818.193 479.6 820.411 479.421 822.656 479.421ZM736.656 479.421C738.9 479.421 740.914 479.574 742.699 479.88 744.484 480.186 745.989 480.798 747.213 481.716 748.437 482.634 749.38 483.884 750.043 485.465 750.706 487.046 751.038 489.111 751.038 491.661L751.038 553.932C749.916 554.136 748.258 554.417 746.065 554.774 743.872 555.131 741.654 555.309 739.41 555.309 737.166 555.309 735.151 555.156 733.366 554.85 731.581 554.544 730.077 553.932 728.853 553.014 727.629 552.096 726.685 550.847 726.022 549.266 725.359 547.685 725.028 545.619 725.028 543.069L725.028 480.798C726.15 480.594 727.807 480.314 730 479.957 732.193 479.6 734.411 479.421 736.656 479.421ZM890.677 477.432C896.491 477.432 901.769 478.172 906.512 479.651 911.255 481.13 915.259 483.042 918.523 485.388 920.562 486.816 922.169 488.397 923.342 490.131 924.515 491.865 925.102 494.109 925.102 496.863L925.102 550.413C925.102 555.819 924.082 560.486 922.042 564.413 920.002 568.34 917.222 571.604 913.703 574.205 910.184 576.806 906.053 578.718 901.31 579.942 896.567 581.166 891.493 581.778 886.087 581.778 876.805 581.778 869.512 580.529 864.208 578.03 858.904 575.531 856.252 571.476 856.252 565.866 856.252 563.52 856.736 561.455 857.705 559.67 858.674 557.885 859.771 556.533 860.995 555.615 863.953 557.247 867.293 558.624 871.016 559.746 874.739 560.868 878.59 561.429 882.568 561.429 888.076 561.429 892.462 560.511 895.726 558.675 898.99 556.839 900.622 553.881 900.622 549.801L900.622 547.353C896.44 549.189 891.339 550.107 885.322 550.107 880.732 550.107 876.371 549.419 872.24 548.042 868.109 546.665 864.488 544.523 861.377 541.616 858.266 538.709 855.767 534.96 853.88 530.37 851.993 525.78 851.05 520.323 851.05 513.999 851.05 507.777 852.044 502.371 854.033 497.781 856.022 493.191 858.776 489.392 862.295 486.383 865.814 483.374 869.996 481.13 874.841 479.651 879.686 478.172 884.965 477.432 890.677 477.432ZM585.453 477.432C590.859 477.432 595.78 478.248 600.217 479.88 604.654 481.512 608.479 483.756 611.692 486.612 614.905 489.468 617.404 492.885 619.189 496.863 620.974 500.841 621.867 505.176 621.867 509.868 621.867 513.336 620.898 515.988 618.96 517.824 617.022 519.66 614.319 520.833 610.851 521.343L573.06 527.004C574.182 530.37 576.477 532.895 579.945 534.578 583.413 536.261 587.391 537.102 591.879 537.102 596.061 537.102 600.013 536.567 603.736 535.496 607.459 534.425 610.494 533.175 612.84 531.747 614.472 532.767 615.849 534.195 616.971 536.031 618.093 537.867 618.654 539.805 618.654 541.845 618.654 546.435 616.512 549.852 612.228 552.096 608.964 553.83 605.292 555.003 601.212 555.615 597.132 556.227 593.307 556.533 589.737 556.533 583.719 556.533 578.134 555.692 572.983 554.009 567.832 552.326 563.344 549.801 559.519 546.435 555.694 543.069 552.685 538.836 550.492 533.736 548.299 528.636 547.203 522.669 547.203 515.835 547.203 509.103 548.299 503.315 550.492 498.47 552.685 493.625 555.567 489.647 559.137 486.536 562.707 483.425 566.787 481.13 571.377 479.651 575.967 478.172 580.659 477.432 585.453 477.432ZM1042.2 463.356C1046.68 463.356 1050.18 464.147 1052.68 465.728 1055.18 467.309 1056.43 470.649 1056.43 475.749L1056.43 485.541 1076.47 485.541C1077.08 486.663 1077.67 488.066 1078.23 489.749 1078.79 491.432 1079.07 493.293 1079.07 495.333 1079.07 498.903 1078.28 501.479 1076.7 503.06 1075.12 504.641 1073 505.431 1070.35 505.431L1056.43 505.431 1056.43 528.534C1056.43 531.186 1057.27 533.073 1058.95 534.195 1060.63 535.317 1063 535.878 1066.06 535.878 1067.59 535.878 1069.18 535.751 1070.81 535.496 1072.44 535.241 1073.87 534.909 1075.09 534.501 1076.01 535.623 1076.8 536.873 1077.46 538.25 1078.13 539.627 1078.46 541.284 1078.46 543.222 1078.46 547.098 1077 550.26 1074.1 552.708 1071.19 555.156 1066.06 556.38 1058.72 556.38 1049.74 556.38 1042.83 554.34 1037.99 550.26 1033.14 546.18 1030.72 539.55 1030.72 530.37L1030.72 464.886C1031.84 464.58 1033.45 464.249 1035.54 463.892 1037.63 463.535 1039.85 463.356 1042.2 463.356ZM449.836 460.755C455.242 460.755 459.475 461.597 462.535 463.28 465.595 464.963 467.839 467.691 469.267 471.465 470.185 473.913 471.179 476.718 472.25 479.88 473.321 483.042 474.392 486.306 475.463 489.672 476.534 493.038 477.58 496.379 478.6 499.694 479.62 503.009 480.538 505.992 481.354 508.644L482.119 508.644C484.567 500.076 487.015 491.789 489.463 483.782 491.911 475.775 494.155 469.068 496.195 463.662 497.725 462.846 499.688 462.158 502.085 461.597 504.482 461.036 507.16 460.755 510.118 460.755 515.116 460.755 519.196 461.495 522.358 462.974 525.52 464.453 527.356 466.569 527.866 469.323 528.274 471.363 528.707 474.5 529.166 478.733 529.625 482.966 530.11 487.734 530.62 493.038 531.13 498.342 531.64 503.952 532.15 509.868 532.66 515.784 533.144 521.471 533.603 526.928 534.062 532.385 534.445 537.383 534.751 541.922 535.057 546.461 535.261 549.954 535.363 552.402 533.629 553.422 531.818 554.162 529.931 554.621 528.044 555.08 525.622 555.309 522.664 555.309 518.788 555.309 515.524 554.646 512.872 553.32 510.22 551.994 508.792 549.393 508.588 545.517 507.976 534.399 507.593 524.403 507.44 515.529 507.287 506.655 507.058 499.209 506.752 493.191L505.987 493.191C504.967 497.169 503.488 502.167 501.55 508.185 499.612 514.203 497.266 521.904 494.512 531.288 493.186 532.41 491.477 533.303 489.386 533.966 487.295 534.629 484.873 534.96 482.119 534.96 478.447 534.96 475.412 534.501 473.015 533.583 470.618 532.665 469.063 531.084 468.349 528.84 465.493 519.864 463.147 512.597 461.311 507.038 459.475 501.479 458.047 496.608 457.027 492.426L456.262 492.426C455.956 498.444 455.726 503.927 455.573 508.874 455.42 513.821 455.318 518.64 455.267 523.332 455.216 528.024 455.114 532.767 454.961 537.561 454.808 542.355 454.579 547.659 454.273 553.473 452.947 553.983 451.213 554.417 449.071 554.774 446.929 555.131 444.787 555.309 442.645 555.309 438.157 555.309 434.663 554.595 432.164 553.167 429.665 551.739 428.416 549.138 428.416 545.364L432.853 467.334C433.669 466.008 435.454 464.58 438.208 463.05 440.962 461.52 444.838 460.755 449.836 460.755ZM953.35 452.952C955.594 452.952 957.608 453.105 959.393 453.411 961.178 453.717 962.683 454.329 963.907 455.247 965.131 456.165 966.074 457.415 966.737 458.996 967.4 460.577 967.732 462.642 967.732 465.192L967.732 480.186C969.058 479.676 971.072 479.09 973.775 478.427 976.478 477.764 979.462 477.432 982.726 477.432 992.824 477.432 1000.7 479.957 1006.36 485.006 1012.03 490.055 1014.86 497.577 1014.86 507.573L1014.86 553.932C1013.84 554.238 1012.23 554.544 1010.04 554.85 1007.84 555.156 1005.57 555.309 1003.23 555.309 1000.98 555.309 998.969 555.156 997.184 554.85 995.399 554.544 993.895 553.932 992.671 553.014 991.447 552.096 990.503 550.847 989.84 549.266 989.177 547.685 988.846 545.619 988.846 543.069L988.846 509.103C988.846 504.921 987.8 501.989 985.709 500.306 983.618 498.623 981.043 497.781 977.983 497.781 975.943 497.781 974.005 498.036 972.169 498.546 970.333 499.056 968.854 499.668 967.732 500.382L967.732 553.932C966.712 554.238 965.105 554.544 962.912 554.85 960.719 555.156 958.45 555.309 956.104 555.309 953.859 555.309 951.845 555.156 950.06 554.85 948.275 554.544 946.771 553.932 945.547 553.014 944.323 552.096 943.379 550.847 942.716 549.266 942.053 547.685 941.722 545.619 941.722 543.069L941.722 454.329C942.844 454.125 944.501 453.845 946.694 453.488 948.887 453.131 951.106 452.952 953.35 452.952ZM779.503 452.952C781.747 452.952 783.761 453.105 785.546 453.411 787.331 453.717 788.836 454.329 790.06 455.247 791.284 456.165 792.227 457.415 792.89 458.996 793.553 460.577 793.885 462.642 793.885 465.192L793.885 553.932C792.763 554.136 791.105 554.417 788.912 554.774 786.719 555.131 784.501 555.309 782.257 555.309 780.013 555.309 777.998 555.156 776.213 554.85 774.428 554.544 772.924 553.932 771.7 553.014 770.476 552.096 769.532 550.847 768.869 549.266 768.206 547.685 767.875 545.619 767.875 543.069L767.875 454.329C768.997 454.125 770.654 453.845 772.847 453.488 775.04 453.131 777.259 452.952 779.503 452.952ZM693.627 452.952C695.871 452.952 697.885 453.105 699.67 453.411 701.455 453.717 702.96 454.329 704.184 455.247 705.408 456.165 706.326 457.415 706.938 458.996 707.55 460.577 707.856 462.642 707.856 465.192L707.856 537.714C707.856 542.508 705.612 546.333 701.124 549.189 698.166 551.127 694.341 552.836 689.649 554.315 684.957 555.794 679.551 556.533 673.431 556.533 666.801 556.533 660.859 555.615 655.606 553.779 650.353 551.943 645.916 549.291 642.295 545.823 638.674 542.355 635.92 538.199 634.033 533.354 632.146 528.509 631.203 523.026 631.203 516.906 631.203 510.174 632.223 504.335 634.263 499.388 636.302 494.441 639.133 490.335 642.754 487.071 646.375 483.807 650.608 481.385 655.453 479.804 660.298 478.223 665.526 477.432 671.136 477.432 673.176 477.432 675.165 477.611 677.103 477.968 679.041 478.325 680.622 478.758 681.846 479.268L681.846 454.482C682.866 454.176 684.498 453.845 686.742 453.488 688.986 453.131 691.281 452.952 693.627 452.952ZM824.033 445.302C828.317 445.302 831.759 446.628 834.36 449.28 836.961 451.932 838.261 455.196 838.261 459.072 838.261 462.948 836.961 466.212 834.36 468.864 831.759 471.516 828.317 472.842 824.033 472.842 819.749 472.842 816.306 471.516 813.705 468.864 811.104 466.212 809.804 462.948 809.804 459.072 809.804 455.196 811.104 451.932 813.705 449.28 816.306 446.628 819.749 445.302 824.033 445.302ZM738.033 445.302C742.317 445.302 745.759 446.628 748.36 449.28 750.961 451.932 752.262 455.196 752.262 459.072 752.262 462.948 750.961 466.212 748.36 468.864 745.759 471.516 742.317 472.842 738.033 472.842 733.749 472.842 730.306 471.516 727.705 468.864 725.104 466.212 723.804 462.948 723.804 459.072 723.804 455.196 725.104 451.932 727.705 449.28 730.306 446.628 733.749 445.302 738.033 445.302Z" stroke="#2F5597" stroke-width="3" stroke-linejoin="round" stroke-miterlimit="10" fill="#FFFFFF" fill-rule="evenodd"/><text fill="#000000" fill-opacity="0" font-family="Arial,Arial_MSFontService,sans-serif" font-size="136.476" x="428.416" y="564.719">Medilight</text><path d="M724 458.5C724 450.492 730.492 444 738.5 444 746.508 444 753 450.492 753 458.5 753 466.508 746.508 473 738.5 473 730.492 473 724 466.508 724 458.5Z" fill="#94C639" fill-rule="evenodd"/><path d="M810 458.5C810 450.492 816.492 444 824.5 444 832.508 444 839 450.492 839 458.5 839 466.508 832.508 473 824.5 473 816.492 473 810 466.508 810 458.5Z" fill="#94C639" fill-rule="evenodd"/><g><g><g><path d="M1095.5 457.417C1088.83 457.417 1083.42 462.827 1083.42 469.5 1083.42 476.173 1088.83 481.583 1095.5 481.583 1102.17 481.583 1107.58 476.173 1107.58 469.5 1107.58 462.827 1102.17 457.417 1095.5 457.417M1095.5 479.167C1090.16 479.167 1085.83 474.839 1085.83 469.5 1085.83 464.161 1090.16 459.833 1095.5 459.833 1100.84 459.833 1105.17 464.161 1105.17 469.5 1105.17 474.839 1100.84 479.167 1095.5 479.167M1095.8 471.035 1094.06 471.035 1094.06 474.938 1091.88 474.938 1091.88 464.316 1095.81 464.316C1096.85 464.253 1097.87 464.547 1098.71 465.15 1099.42 465.747 1099.8 466.645 1099.73 467.567 1099.75 468.204 1099.59 468.834 1099.26 469.379 1098.92 469.918 1098.42 470.339 1097.83 470.587L1100.13 474.925 1100.13 475.046 1097.78 475.046 1095.8 471.143M1094.06 469.379 1095.83 469.379C1096.29 469.405 1096.74 469.254 1097.09 468.956 1097.42 468.641 1097.58 468.197 1097.54 467.748 1097.58 467.303 1097.43 466.864 1097.12 466.54 1096.76 466.225 1096.29 466.072 1095.81 466.117L1094.06 466.117Z" fill="#FFFFFF"/></g></g></g></g></svg>