<svg width="366" height="389" xmlns="http://www.w3.org/2000/svg" xmlns:xlink="http://www.w3.org/1999/xlink" overflow="hidden"><g transform="translate(-462 -200)"><g><g><path d="M144.346 531.437 185.328 234.974 351.336 253.685 421.582 344.31 391.161 560.362 144.346 531.437ZM317.833 355.622 336.045 271.655 204.464 258.414 167.184 512.453 372.015 537.524 396.764 366.241 317.833 355.622ZM226.122 467.577C224.696 465.701 212.045 455.108 209.665 451.832 243.332 414.337 325.539 414.802 348.37 464.407 344.568 465.81 327.582 473.165 324.253 475.037 314.727 447.356 258.937 438.625 226.122 467.577ZM289.422 365.068 275.552 375.51 254.688 350.382 226.288 365.628 214.829 346.452 240.664 333.487 223.542 312.861 244.349 298.939 260.957 323.299 290.538 308.45 299.451 326.348 272.791 340.66 289.422 365.068Z" fill="#01588E" fill-rule="evenodd" transform="matrix(1.00093 0 0 1 356.233 0.829569)"/></g></g></g></svg>