<svg width="508" height="571" xmlns="http://www.w3.org/2000/svg" xmlns:xlink="http://www.w3.org/1999/xlink" overflow="hidden"><g transform="translate(909 -402)"><g><g><path d="M351.722 220.184C364.138 219.757 373.859 209.345 373.43 196.928 373.004 184.51 362.593 174.79 350.175 175.217L351.722 220.184ZM214.721 346.809 192.235 347.499C192.244 347.763 192.256 348.027 192.274 348.291L214.721 346.809ZM176.322 449.304 191.008 466.345C191.41 466 191.8 465.64 192.177 465.265L176.322 449.304ZM163.161 460.192 176.376 478.4C176.748 478.13 177.111 477.848 177.465 477.557L163.161 460.192ZM292.456 532.422C304.881 532.422 314.954 522.349 314.954 509.925 314.954 497.501 304.881 487.428 292.456 487.428L292.456 532.422ZM351.722 175.217C339.304 174.79 328.893 184.51 328.464 196.928 328.038 209.345 337.756 219.757 350.175 220.184L351.722 175.217ZM487.174 346.809 509.622 348.288C509.64 348.024 509.652 347.763 509.661 347.499L487.174 346.809ZM525.574 449.274 509.718 465.235C510.096 465.607 510.486 465.97 510.888 466.315L525.574 449.274ZM538.736 460.162 524.431 477.527C524.779 477.812 525.133 478.088 525.496 478.352L538.736 460.162ZM409.44 487.428C397.016 487.428 386.943 497.501 386.943 509.925 386.943 522.349 397.016 532.422 409.44 532.422L409.44 487.428ZM328.452 197.701C328.452 210.125 338.524 220.198 350.948 220.198 363.373 220.198 373.445 210.125 373.445 197.701L328.452 197.701ZM373.445 149.978C373.445 137.554 363.373 127.481 350.948 127.481 338.524 127.481 328.452 137.554 328.452 149.978L373.445 149.978ZM292.456 487.428C280.032 487.428 269.96 497.501 269.96 509.925 269.96 522.349 280.032 532.422 292.456 532.422L292.456 487.428ZM409.44 532.422C421.864 532.422 431.937 522.349 431.937 509.925 431.937 497.501 421.864 487.428 409.44 487.428L409.44 532.422ZM314.954 509.925C314.954 497.501 304.881 487.428 292.456 487.428 280.032 487.428 269.96 497.501 269.96 509.925L314.954 509.925ZM431.937 509.925C431.937 497.501 421.864 487.428 409.44 487.428 397.016 487.428 386.943 497.501 386.943 509.925L431.937 509.925ZM350.175 175.217C259.533 178.335 189.425 255.923 192.235 347.499L237.208 346.119C235.124 278.243 286.907 222.414 351.722 220.184L350.175 175.217ZM192.274 348.291C194.38 380.188 182.663 411.294 160.467 433.343L192.177 465.265C223.743 433.904 240.121 390.021 237.169 345.327L192.274 348.291ZM161.636 432.264C156.936 436.313 152.985 439.43 148.858 442.828L177.465 477.557C180.765 474.836 185.823 470.814 191.008 466.345L161.636 432.264ZM149.946 441.985C143.37 446.76 137.393 453.581 132.938 460.783 128.539 467.892 124.329 477.464 123.79 488.052 123.2 499.634 127.189 512.514 139.041 521.575 149.644 529.686 163.615 532.422 178.398 532.422L178.398 487.428C173.499 487.428 170.258 486.949 168.27 486.442 166.299 485.941 165.948 485.512 166.373 485.836 166.923 486.259 167.739 487.153 168.277 488.439 168.765 489.612 168.723 490.38 168.725 490.344 168.729 490.257 168.789 489.627 169.217 488.445 169.636 487.29 170.295 485.92 171.2 484.459 172.099 483.004 173.122 481.651 174.136 480.523 175.178 479.36 175.988 478.679 176.376 478.4L149.946 441.985ZM178.398 532.422 292.456 532.422 292.456 487.428 178.398 487.428 178.398 532.422ZM350.175 220.184C414.989 222.414 466.771 278.243 464.689 346.119L509.661 347.499C512.472 255.923 442.363 178.335 351.722 175.217L350.175 220.184ZM464.728 345.33C461.785 390.015 478.163 433.883 509.718 465.235L541.43 433.313C519.239 411.27 507.523 380.176 509.622 348.288L464.728 345.33ZM510.888 466.315C516.074 470.784 521.132 474.806 524.431 477.527L553.038 442.798C548.91 439.4 544.96 436.283 540.26 432.234L510.888 466.315ZM525.496 478.352C525.898 478.643 526.72 479.336 527.77 480.508 528.792 481.648 529.824 483.007 530.733 484.471 531.645 485.941 532.311 487.317 532.734 488.478 533.166 489.666 533.229 490.299 533.232 490.383 533.235 490.419 533.19 489.642 533.682 488.46 534.222 487.158 535.046 486.259 535.601 485.833 536.027 485.506 535.676 485.935 533.697 486.439 531.699 486.949 528.444 487.428 523.528 487.428L523.528 532.422C538.325 532.422 552.315 529.689 562.924 521.578 574.8 512.502 578.777 499.598 578.162 488.007 577.601 477.413 573.369 467.847 568.963 460.744 564.499 453.551 558.524 446.742 551.973 441.973L525.496 478.352ZM523.528 487.428 409.44 487.428 409.44 532.422 523.528 532.422 523.528 487.428ZM373.445 197.701 373.445 149.978 328.452 149.978 328.452 197.701 373.445 197.701ZM292.456 532.422 409.44 532.422 409.44 487.428 292.456 487.428 292.456 532.422ZM269.96 509.925C269.96 554.943 305.685 592.413 350.948 592.413L350.948 547.42C331.601 547.42 314.954 531.174 314.954 509.925L269.96 509.925ZM350.948 592.413C396.209 592.413 431.937 554.943 431.937 509.925L386.943 509.925C386.943 531.174 370.293 547.42 350.948 547.42L350.948 592.413Z" stroke="#FFFFFF" stroke-width="29.9956" fill="#FFFFFF" transform="matrix(1 0 0 1.00014 -1006.06 325.328)"/></g></g></g></svg>