<svg width="14" height="31" xmlns="http://www.w3.org/2000/svg" xmlns:xlink="http://www.w3.org/1999/xlink" overflow="hidden"><g transform="translate(-484 -336)"><g><g><g><path d="M10.5686 24.3662 10.5686 23.6268C10.5852 23.5668 10.6121 23.5128 10.6234 23.4528 10.8627 21.8975 12.1561 20.6693 13.6731 20.5658 15.3693 20.4466 16.8046 21.4139 17.2717 22.9901 17.3317 23.1971 17.3752 23.4146 17.4291 23.6259L17.4291 24.3653C17.4126 24.414 17.3856 24.4575 17.3804 24.5123 17.1464 25.9476 16.1139 27.0401 14.7004 27.3497 14.5917 27.3715 14.483 27.4045 14.3742 27.4315L13.6349 27.4315C13.5862 27.415 13.5366 27.388 13.4879 27.3828 12.0744 27.1549 10.9984 26.1485 10.6722 24.7515 10.64 24.6158 10.6017 24.4906 10.5686 24.3653ZM17.43 3.46895 17.43 4.20832C17.4135 4.26834 17.3865 4.32227 17.3813 4.38229 17.1369 5.94802 15.8373 7.17102 14.3038 7.26932 12.6128 7.37805 11.1828 6.39947 10.7209 4.81722 10.6609 4.61628 10.6174 4.40926 10.5686 4.20832L10.5686 3.46895C10.5852 3.42024 10.6121 3.37675 10.6234 3.32804 10.8844 1.91453 11.7055 0.989887 13.0755 0.549744 13.2547 0.489724 13.4452 0.45754 13.6296 0.408828L14.369 0.408828C14.4177 0.425355 14.4673 0.452321 14.516 0.45754 15.9347 0.691529 17.0064 1.69185 17.3326 3.08883 17.3656 3.21931 17.3978 3.34456 17.4309 3.46895ZM17.4291 13.5479 17.4291 14.2872C17.4126 14.3473 17.3856 14.4012 17.3743 14.4612 17.1299 16.0217 15.7816 17.2778 14.2594 17.343 12.5467 17.4187 11.0958 16.3862 10.6878 14.7935 10.6443 14.6247 10.6061 14.4569 10.5686 14.2881L10.5686 13.5487C10.5852 13.4887 10.6121 13.4348 10.6234 13.3748 10.8627 11.8143 12.2161 10.5582 13.7384 10.4878 15.4511 10.406 16.902 11.4446 17.31 13.0373 17.3535 13.2112 17.3917 13.38 17.4291 13.5487Z" fill="#002843" transform="matrix(1 0 0 1.04185 476.773 337)"/></g></g></g></g></svg>