<svg width="800" height="800" viewBox="0 0 448 448" xmlns="http://www.w3.org/2000/svg" xmlns:xlink="http://www.w3.org/1999/xlink" id="svg2" fill="#002741" overflow="hidden"><g id="SVGRepo_bgCarrier" stroke-width="0"></g><g id="SVGRepo_tracerCarrier" stroke-linecap="round" stroke-linejoin="round"></g><g id="SVGRepo_iconCarrier"><defs id="defs4"></defs><g id="layer1" transform="matrix(1 0 0 1 0 -604.362)"><text id="text3481" fill="#000000" font-family="Calibri" font-weight="400" font-size="13.8125" xml:space="preserve" x="51.2317" y="1009.71"> <tspan x="0" y="0"> <tspan font-size="13.8125" dx="0" dy="0"></tspan> </tspan> </text><text id="text3698" fill="#000000" font-family="Calibri" font-weight="400" font-size="13.8125" xml:space="preserve" x="82.9298" y="1080.2"> <tspan x="0" y="0"> <tspan font-size="13.8125" dx="0" dy="0"></tspan> </tspan> </text><text id="text3917" fill="#000000" font-family="Calibri" font-weight="400" font-size="82.5056" xml:space="preserve" transform="scale(1.00894 0.991141)" x="414.305" y="1331.04"> <tspan x="0" y="0"> <tspan font-size="82.5056" dx="0" dy="0"></tspan> </tspan> </text><text id="text3980" fill="#000000" font-family="Calibri" font-weight="400" font-size="13.8125" xml:space="preserve" x="85.3086" y="1087.36"> <tspan x="0" y="0"> <tspan font-size="13.8125" dx="0" dy="0"></tspan> </tspan> </text><g id="text4267" fill="#000000" font-family="Calibri" font-weight="400" font-size="13.8125" transform="matrix(6.20241 0 0 6.20168 -62.8699 -5357.84)"></g><text id="text4331" font-family="Calibri" font-weight="400" font-size="13.8125" xml:space="preserve" x="83.3729" y="1083.8"> <tspan x="0" y="0"> <tspan font-size="13.8125" dx="0" dy="0"></tspan> </tspan> </text><g id="text4394" fill="#000000" font-family="Calibri" font-weight="400" font-size="13.8125" transform="matrix(7.56694 0 0 7.56224 -98.5041 -6778.99)"></g><text id="text4519" font-family="Calibri" font-weight="400" font-size="73.5074" xml:space="preserve" x="411.781" y="1280.71"> <tspan x="0" y="0"> <tspan font-size="73.5074" dx="0" dy="0"></tspan> </tspan> </text><g id="text4955" font-family="Segoe UI Symbol" font-weight="400" font-size="16.9157" transform="matrix(27.8193 0 0 27.7893 -278.716 -27667.7)"><path d="M26.1228 1023.13C25.3588 1023.95 24.2777 1024.16 23.2471 1023.71 22.0742 1024.88 20.9691 1025.99 19.7962 1027.16 20.5926 1028.65 20.4468 1030 19.2211 1031.19L16.3454 1028.89 10.0188 1033.49 14.62 1027.16 12.3194 1024.28C13.5142 1023.06 14.851 1022.91 16.3454 1023.71 17.5182 1022.53 18.6234 1021.42 19.7962 1020.25 19.3444 1019.22 19.5521 1018.14 20.3714 1017.37 22.2505 1019.26 24.2504 1021.24 26.1228 1023.13Z" id="path4979" font-size="16.9157"/></g><g id="text4961" font-family="Calibri" font-weight="400" font-size="13.8125" transform="matrix(6.20238 0 0 6.19744 -62.0232 -5352.64)"></g></g></g></svg>