<!DOCTYPE svg PUBLIC "-//W3C//DTD SVG 1.1//EN" "http://www.w3.org/Graphics/SVG/1.1/DTD/svg11.dtd">
<!-- Uploaded to: SVG Repo, www.svgrepo.com, Transformed by: SVG Repo Mixer Tools -->
<svg fill="#fff" version="1.1" id="Layer_1" xmlns="http://www.w3.org/2000/svg" xmlns:xlink="http://www.w3.org/1999/xlink" width="800px" height="800px" viewBox="0 0 92 92" enable-background="new 0 0 92 92" xml:space="preserve" stroke="#fff">
<g id="SVGRepo_bgCarrier" stroke-width="0"/>
<g id="SVGRepo_tracerCarrier" stroke-linecap="round" stroke-linejoin="round"/>
<g id="SVGRepo_iconCarrier"> <path id="XMLID_1181_" d="M92,57c0,2.2-1.8,4-4,4H69.2c-1.7,0-3.2-0.9-3.8-2.6l-3-8.4l-9.8,33.1c-0.5,1.7-2.1,2.9-3.8,2.9 c0,0-0.1,0-0.1,0c-1.8-0.1-3.4-1.3-3.8-3.1L32,27l-7.8,31.1c-0.4,1.8-2,2.9-3.9,2.9H4c-2.2,0-4-1.8-4-4s1.8-4,4-4h13.2L28.3,8.9 C28.7,7.1,30.4,6,32.2,6c1.8,0,3.4,1.3,3.9,3.1l13.2,57.2l9-30.4c0.5-1.7,2-2.9,3.7-2.9c1.7-0.1,3.3,1,3.9,2.6L72,53h16 C90.2,53,92,54.8,92,57z"/> </g>
</svg>