<svg width="800" height="800" viewBox="-143 145 512 512" xmlns="http://www.w3.org/2000/svg" xmlns:xlink="http://www.w3.org/1999/xlink" id="Layer_1" stroke="#FFFFFF" fill="#FFFFFF" xml:space="preserve" overflow="hidden"><g id="SVGRepo_bgCarrier" stroke-width="0"></g><g id="SVGRepo_tracerCarrier" stroke-linecap="round" stroke-linejoin="round"></g><g id="SVGRepo_iconCarrier"><g><path d="M113 145C-28.4 145-143 259.6-143 401-143 542.4-28.4 657 113 657 254.4 657 369 542.4 369 401 369 259.6 254.4 145 113 145ZM272.8 560.7C252 581.5 227.9 597.8 201 609.1 173.2 620.9 143.6 626.8 113 626.8 82.5 626.8 52.9 620.8 25 609.1-1.9 597.7-26.1 581.4-46.8 560.7-67.6 539.9-83.9 515.8-95.2 488.9-107 461.1-113 431.5-113 401-113 370.5-107 340.9-95.3 313-83.9 286.1-67.6 261.9-46.9 241.2-26 220.4-1.9 204.1 25 192.7 52.9 181 82.5 175 113 175 143.5 175 173.1 181 201 192.7 227.9 204.1 252.1 220.4 272.8 241.1 293.6 261.9 309.9 286 321.2 312.9 333 340.7 338.9 370.3 338.9 400.9 338.9 431.4 332.9 461 321.2 488.9 309.8 515.8 293.5 540 272.8 560.7Z"/><path d="M234.3 313.1C224.1 319.1 212.9 323.5 200.9 325.9 191.3 315.7 177.6 309.3 162.5 309.3 133.5 309.3 109.9 332.9 109.9 361.9 109.9 366 110.3 370 111.3 373.9 67.6 371.7 28.8 350.8 2.9 318.9-1.6 326.7-4.2 335.7-4.2 345.4-4.2 363.6 5.1 379.7 19.2 389.2 10.6 388.9 2.5 386.5-4.6 382.6L-4.6 383.2C-4.6 408.7 13.5 430 37.6 434.8 33.2 436 28.5 436.7 23.7 436.7 20.3 436.7 17 436.4 13.8 435.8 20.5 456.7 39.9 471.9 62.9 472.3 44.9 486.4 22.2 494.8-2.4 494.8-6.6 494.8-10.8 494.6-15 494.1 8.3 509 35.9 517.7 65.6 517.7 162.4 517.7 215.3 437.5 215.3 368 215.3 365.7 215.3 363.4 215.2 361.2 225.5 353.7 234.4 344.5 241.4 333.9 232 338.1 221.8 340.9 211.2 342.2 222.1 335.7 230.4 325.4 234.3 313.1Z"/></g></g></svg>