<svg width="800" height="800" viewBox="0 0 512 512" xmlns="http://www.w3.org/2000/svg" xmlns:xlink="http://www.w3.org/1999/xlink" id="Layer_1" xml:space="preserve" overflow="hidden"><circle cx="256" cy="256" r="256" fill="#F0F0F0"/><g><path d="M52.92 100.142C32.811 126.305 17.648 156.46 8.819 189.219L141.997 189.219 52.92 100.142Z" fill="#0052B4"/><path d="M503.181 189.219C494.352 156.461 479.188 126.306 459.08 100.143L370.005 189.219 503.181 189.219Z" fill="#0052B4"/><path d="M8.819 322.784C17.649 355.542 32.812 385.697 52.92 411.859L141.994 322.784 8.819 322.784 8.819 322.784Z" fill="#0052B4"/><path d="M411.858 52.921C385.695 32.812 355.541 17.649 322.782 8.819L322.782 141.996 411.858 52.921Z" fill="#0052B4"/><path d="M100.142 459.079C126.305 479.188 156.46 494.351 189.218 503.181L189.218 370.005 100.142 459.079Z" fill="#0052B4"/><path d="M189.217 8.819C156.459 17.649 126.304 32.812 100.142 52.92L189.217 141.995 189.217 8.819Z" fill="#0052B4"/><path d="M322.783 503.181C355.541 494.351 385.696 479.188 411.858 459.08L322.783 370.005 322.783 503.181Z" fill="#0052B4"/><path d="M370.005 322.784 459.08 411.86C479.188 385.698 494.352 355.542 503.181 322.784L370.005 322.784Z" fill="#0052B4"/></g><g><path d="M509.833 222.609 289.393 222.609 289.392 222.609 289.392 2.167C278.461 0.744 267.317 0 256 0 244.681 0 233.539 0.744 222.609 2.167L222.609 222.607 222.609 222.608 2.167 222.608C0.744 233.539 0 244.683 0 256 0 267.319 0.744 278.461 2.167 289.391L222.607 289.391 222.608 289.391 222.608 509.833C233.539 511.256 244.681 512 256 512 267.317 512 278.461 511.257 289.391 509.833L289.391 289.393 289.391 289.392 509.833 289.392C511.256 278.461 512 267.319 512 256 512 244.683 511.256 233.539 509.833 222.609Z" fill="#D80027"/><path d="M322.783 322.784 322.783 322.784 437.019 437.02C442.273 431.768 447.285 426.277 452.067 420.585L354.265 322.783 322.783 322.783 322.783 322.784Z" fill="#D80027"/><path d="M189.217 322.784 189.215 322.784 74.98 437.019C80.232 442.273 85.723 447.285 91.415 452.067L189.217 354.263 189.217 322.784Z" fill="#D80027"/><path d="M189.217 189.219 189.217 189.217 74.981 74.98C69.727 80.232 64.715 85.723 59.933 91.415L157.736 189.218 189.217 189.218Z" fill="#D80027"/><path d="M322.783 189.219 322.783 189.219 437.02 74.981C431.768 69.727 426.277 64.715 420.585 59.934L322.783 157.737 322.783 189.219Z" fill="#D80027"/></g></svg>