<svg width="192" height="192" xmlns="http://www.w3.org/2000/svg" xmlns:xlink="http://www.w3.org/1999/xlink" overflow="hidden"><defs><clipPath id="clip0"><rect x="-70" y="24" width="192" height="192"/></clipPath><linearGradient x1="-31.6" y1="139.2" x2="45.2" y2="100.8" gradientUnits="userSpaceOnUse" spreadMethod="pad" id="fill1"><stop offset="0" stop-color="#C07F00"/><stop offset="1" stop-color="#FFB85B"/></linearGradient></defs><g clip-path="url(#clip0)" transform="translate(70 -24)"><path d="M114.32 179.52 47.12 47.04C39.44 29.184 12.56 29.184 4.88 47.04 4.88 47.04-59.632 173.76-63.472 183.36-67.312 192.96-63.472 206.4-46.96 206.4L89.36 206.4C112.4 206.4 122 196.8 114.32 179.52Z" stroke="#DC9B1D" stroke-width="5.76" fill="none"/><path d="M104.72 177.6 41.36 54.72C33.68 37.632 18.32 37.632 10.64 54.72 10.64 54.72-48.88 171.84-52.72 179.52-58.096 189.12-58.864 198.72-43.12 198.72L85.52 198.72C108.56 198.72 112.4 192.96 104.72 177.6Z" stroke="#444444" stroke-width="13.44" fill="url(#fill1)"/><path d="M18.32 144.96 12.56 91.2 39.44 91.2 33.68 144.96Z" fill="#333333"/><path d="M39.44 164.16C39.44 171.583 33.4227 177.6 26 177.6 18.5773 177.6 12.56 171.583 12.56 164.16 12.56 156.737 18.5773 150.72 26 150.72 33.4227 150.72 39.44 156.737 39.44 164.16Z" fill="#333333"/></g></svg>